<?xml version="1.0" encoding="UTF-8"?>
<svg id="Layer_1" data-name="Layer 1" xmlns="http://www.w3.org/2000/svg" xmlns:xlink="http://www.w3.org/1999/xlink" viewBox="0 0 901.5 584.84">
  <defs>
    <style>
      .cls-1 {
        fill: #807750;
      }

      .cls-2 {
        fill: #b1a66a;
      }

      .cls-3 {
        fill: #352a2a;
      }

      .cls-4 {
        fill: #55493d;
      }

      .cls-5 {
        fill: #3f342f;
      }

      .cls-6 {
        fill: #dfd58b;
      }

      .cls-7 {
        fill: #b8ad6e;
      }

      .cls-8 {
        fill: #786d4b;
      }

      .cls-9 {
        fill: #362d2d;
      }

      .cls-10 {
        fill: #9d935e;
      }

      .cls-11 {
        fill: #241a23;
      }

      .cls-12 {
        fill: #ddd489;
      }

      .cls-13 {
        fill: #2e2527;
      }

      .cls-14 {
        fill: #382b2a;
      }

      .cls-15 {
        fill: #403732;
      }

      .cls-16 {
        fill: #695f47;
      }

      .cls-17 {
        fill: #dcd5ba;
      }

      .cls-18 {
        fill: #a99d63;
      }

      .cls-19 {
        fill: #372c2b;
      }

      .cls-20 {
        fill: #80dde4;
      }

      .cls-21 {
        fill: #4c4239;
      }

      .cls-22 {
        fill: #bfc1bf;
      }

      .cls-23 {
        fill: #d9d189;
      }

      .cls-24 {
        fill: #d9d1b3;
      }

      .cls-25 {
        fill: #372d2c;
      }

      .cls-26 {
        fill: #4f4336;
      }

      .cls-27 {
        fill: #5c523f;
      }

      .cls-28 {
        fill: #6e634a;
      }

      .cls-29 {
        fill: #33292a;
      }

      .cls-30 {
        fill: #3e322f;
      }

      .cls-31 {
        fill: #083442;
      }

      .cls-32 {
        fill: #d5c862;
      }

      .cls-33 {
        fill: #32292c;
      }

      .cls-34 {
        fill: #d3c984;
      }

      .cls-35 {
        fill: #292025;
      }

      .cls-36 {
        fill: #dccf7b;
      }

      .cls-37 {
        fill: url(#linear-gradient);
      }

      .cls-38 {
        fill: #261c24;
      }

      .cls-39 {
        fill: #241b23;
      }

      .cls-40 {
        fill: #e4d6ad;
      }

      .cls-41 {
        fill: #ddd283;
      }

      .cls-42 {
        fill: #ddd285;
      }

      .cls-43 {
        fill: #3a2f2b;
      }

      .cls-44 {
        fill: #4c4038;
      }
    </style>
    <linearGradient id="linear-gradient" x1="336.35" y1="570.9" x2="578.16" y2="570.9" gradientTransform="translate(0 612) scale(1 -1)" gradientUnits="userSpaceOnUse">
      <stop offset="0" stop-color="#847a70"/>
      <stop offset="1" stop-color="#393731"/>
    </linearGradient>
  </defs>
  <path class="cls-40" d="M875.76,0H0v584.84h901.5V0h-25.75.01ZM863.7,567.26H37.8c-6.66,0-12.05-5.4-12.05-12.05V47.19c0-6.66,5.4-12.05,12.05-12.05h268.37c8.67,0,15.7,7.03,15.7,15.7v21.85c0,3.39,2.75,6.15,6.15,6.15h258.79c3.39,0,6.15-2.75,6.15-6.15v-21.85c0-8.67,7.03-15.7,15.7-15.7h255.04c6.66,0,12.05,5.4,12.05,12.05v508.02c0,6.66-5.4,12.05-12.05,12.05h0Z"/>
  <g>
    <path class="cls-37" d="M573.55,19.54v43.11h-232.59V19.54h232.59M577.01,14.94h-239.51c-.63,0-1.15.51-1.15,1.15v50.02c0,.63.51,1.15,1.15,1.15h239.51c.63,0,1.15-.51,1.15-1.15V16.09c0-.63-.51-1.15-1.15-1.15h0Z"/>
    <g>
      <rect class="cls-31" x="344.87" y="23.29" width="224.85" height="35.53"/>
      <path d="M565.89,27.12v27.87h-217.19v-27.87h217.19M573.55,19.46h-232.5v43.19h232.5V19.46h0Z"/>
    </g>
    <rect class="cls-20" x="377.87" y="37.61" width="3.08" height="4.45"/>
    <rect class="cls-20" x="381.71" y="37.61" width="3.08" height="4.45"/>
    <rect class="cls-20" x="385.55" y="37.61" width="3.08" height="4.45"/>
    <rect class="cls-20" x="519.98" y="37.61" width="3.08" height="4.45"/>
    <rect class="cls-20" x="523.82" y="37.61" width="3.08" height="4.45"/>
    <rect class="cls-20" x="527.67" y="37.61" width="3.08" height="4.45"/>
    <rect class="cls-20" x="393.23" y="37.61" width="3.08" height="4.45"/>
    <rect class="cls-20" x="393.23" y="32.36" width="3.08" height="4.45"/>
    <rect class="cls-20" x="393.23" y="48.1" width="3.08" height="4.45"/>
    <rect class="cls-20" x="393.23" y="42.85" width="3.08" height="4.45"/>
    <rect class="cls-20" x="393.23" y="27.11" width="3.08" height="4.45"/>
    <rect class="cls-20" x="431.64" y="37.61" width="3.08" height="4.45"/>
    <rect class="cls-20" x="431.64" y="32.36" width="3.08" height="4.45"/>
    <rect class="cls-20" x="431.64" y="48.1" width="3.08" height="4.45"/>
    <rect class="cls-20" x="431.64" y="42.85" width="3.08" height="4.45"/>
    <rect class="cls-20" x="431.64" y="27.11" width="3.08" height="4.45"/>
    <rect class="cls-20" x="443.17" y="37.61" width="3.08" height="4.45"/>
    <rect class="cls-20" x="443.17" y="32.36" width="3.08" height="4.45"/>
    <rect class="cls-20" x="439.32" y="32.36" width="3.08" height="4.45"/>
    <rect class="cls-20" x="435.48" y="32.36" width="3.08" height="4.45"/>
    <rect class="cls-20" x="443.17" y="48.1" width="3.08" height="4.45"/>
    <rect class="cls-20" x="454.69" y="48.1" width="3.08" height="4.45"/>
    <rect class="cls-20" x="443.17" y="42.85" width="3.08" height="4.45"/>
    <rect class="cls-20" x="443.17" y="27.11" width="3.08" height="4.45"/>
    <rect class="cls-20" x="500.78" y="37.61" width="3.08" height="4.45"/>
    <rect class="cls-20" x="500.78" y="32.36" width="3.08" height="4.45"/>
    <rect class="cls-20" x="500.78" y="48.1" width="3.08" height="4.45"/>
    <rect class="cls-20" x="500.78" y="42.85" width="3.08" height="4.45"/>
    <rect class="cls-20" x="500.78" y="27.11" width="3.08" height="4.45"/>
    <rect class="cls-20" x="512.3" y="37.61" width="3.08" height="4.45"/>
    <rect class="cls-20" x="512.3" y="32.36" width="3.08" height="4.45"/>
    <rect class="cls-20" x="508.46" y="32.36" width="3.08" height="4.45"/>
    <rect class="cls-20" x="504.62" y="32.36" width="3.08" height="4.45"/>
    <rect class="cls-20" x="512.3" y="48.1" width="3.08" height="4.45"/>
    <rect class="cls-20" x="512.3" y="42.85" width="3.08" height="4.45"/>
    <rect class="cls-20" x="512.3" y="27.11" width="3.08" height="4.45"/>
    <rect class="cls-20" x="397.07" y="27.11" width="3.08" height="4.45"/>
    <rect class="cls-20" x="400.91" y="27.11" width="3.08" height="4.45"/>
    <rect class="cls-20" x="466.21" y="27.11" width="3.08" height="4.45"/>
    <rect class="cls-20" x="470.05" y="27.11" width="3.08" height="4.45"/>
    <rect class="cls-20" x="473.89" y="27.11" width="3.08" height="4.45"/>
    <rect class="cls-20" x="466.21" y="48.1" width="3.08" height="4.45"/>
    <rect class="cls-20" x="470.05" y="48.1" width="3.08" height="4.45"/>
    <rect class="cls-20" x="473.89" y="48.1" width="3.08" height="4.45"/>
    <rect class="cls-20" x="404.75" y="32.36" width="3.08" height="4.45"/>
    <rect class="cls-20" x="404.75" y="37.61" width="3.08" height="4.45"/>
    <rect class="cls-20" x="404.75" y="42.85" width="3.08" height="4.45"/>
    <rect class="cls-20" x="400.91" y="48.1" width="3.08" height="4.45"/>
    <rect class="cls-20" x="412.44" y="42.85" width="3.08" height="4.45"/>
    <rect class="cls-20" x="412.44" y="37.61" width="3.08" height="4.45"/>
    <rect class="cls-20" x="412.44" y="32.36" width="3.08" height="4.45"/>
    <rect class="cls-20" x="462.37" y="42.85" width="3.08" height="4.45"/>
    <rect class="cls-20" x="462.37" y="37.61" width="3.08" height="4.45"/>
    <rect class="cls-20" x="462.37" y="32.36" width="3.08" height="4.45"/>
    <rect class="cls-20" x="416.28" y="27.11" width="3.08" height="4.45"/>
    <rect class="cls-20" x="420.12" y="27.11" width="3.08" height="4.45"/>
    <rect class="cls-20" x="423.96" y="32.36" width="3.08" height="4.45"/>
    <rect class="cls-20" x="423.96" y="37.61" width="3.08" height="4.45"/>
    <rect class="cls-20" x="423.96" y="42.85" width="3.08" height="4.45"/>
    <rect class="cls-20" x="420.12" y="48.1" width="3.08" height="4.45"/>
    <rect class="cls-20" x="416.28" y="48.1" width="3.08" height="4.45"/>
    <rect class="cls-20" x="481.57" y="42.85" width="3.08" height="4.45"/>
    <rect class="cls-20" x="481.57" y="37.61" width="3.08" height="4.45"/>
    <rect class="cls-20" x="481.57" y="32.36" width="3.08" height="4.45"/>
    <rect class="cls-20" x="485.41" y="27.11" width="3.08" height="4.45"/>
    <rect class="cls-20" x="489.25" y="27.11" width="3.08" height="4.45"/>
    <rect class="cls-20" x="493.09" y="32.36" width="3.08" height="4.45"/>
    <rect class="cls-20" x="493.09" y="37.61" width="3.08" height="4.45"/>
    <rect class="cls-20" x="493.09" y="42.85" width="3.08" height="4.45"/>
    <rect class="cls-20" x="489.25" y="48.1" width="3.08" height="4.45"/>
    <rect class="cls-20" x="485.41" y="48.1" width="3.08" height="4.45"/>
    <rect class="cls-20" x="397.07" y="48.1" width="3.08" height="4.45"/>
    <path d="M566.93,32.36v-.79h-.86v-4.89h-.76v4.89h-3.08v-4.89h-.76v4.89h-3.08v-4.89h-.76v4.89h-3.08v-4.89h-.76v4.89h-3.08v-4.89h-.76v4.89h-3.08v-4.89h-.76v4.89h-3.08v-4.89h-.76v4.89h-3.08v-4.89h-.76v4.89h-3.08v-4.89h-.76v4.89h-3.08v-4.89h-.76v4.89h-3.08v-4.89h-.76v4.89h-3.08v-4.89h-.76v4.89h-3.08v-4.89h-.76v4.89h-3.08v-4.89h-.76v4.89h-3.08v-4.89h-.76v4.89h-3.08v-4.89h-.76v4.89h-3.08v-4.89h-.76v4.89h-3.08v-4.89h-.76v4.89h-3.08v-4.89h-.76v4.89h-3.08v-4.89h-.76v4.89h-3.08v-4.89h-.76v4.89h-3.08v-4.89h-.76v4.89h-3.08v-4.89h-.76v4.89h-3.08v-4.89h-.76v4.89h-3.08v-4.89h-.76v4.89h-3.08v-4.89h-.76v4.89h-3.08v-4.89h-.76v4.89h-3.08v-4.89h-.76v4.89h-3.08v-4.89h-.76v4.89h-3.08v-4.89h-.76v4.89h-3.08v-4.89h-.76v4.89h-3.08v-4.89h-.76v4.89h-3.08v-4.89h-.76v4.89h-3.08v-4.89h-.76v4.89h-3.08v-4.89h-.76v4.89h-3.08v-4.89h-.76v4.89h-3.08v-4.89h-.76v4.89h-3.08v-4.89h-.76v4.89h-3.08v-4.89h-.76v4.89h-3.08v-4.89h-.76v4.89h-3.08v-4.89h-.76v4.89h-3.08v-4.89h-.76v4.89h-3.08v-4.89h-.76v4.89h-3.08v-4.89h-.76v4.89h-3.08v-4.89h-.76v4.89h-3.08v-4.89h-.76v4.89h-3.08v-4.89h-.76v4.89h-3.08v-4.89h-.76v4.89h-3.08v-4.89h-.76v4.89h-3.08v-4.89h-.76v4.89h-3.08v-4.89h-.76v4.89h-3.08v-4.89h-.76v4.89h-3.08v-4.89h-.76v4.89h-3.08v-4.89h-.76v4.89h-3.08v-4.89h-.76v4.89h-3.08v-4.89h-.76v4.89h-3.02v-5.18h-.76v5.18h-3.14v.79h3.14v4.45h-3.14v.79h3.14v4.45h-3.14v.79h3.14v4.45h-3.14v.79h3.14v4.45h-3.14v.79h3.14v3.61h.76v-3.61h3.02v2h.76v-2h3.08v2h.76v-2h3.08v2h.76v-2h3.08v2h.76v-2h3.08v2h.76v-2h3.08v2h.76v-2h3.08v2h.76v-2h3.08v2h.76v-2h3.08v2h.76v-2h3.08v2h.76v-2h3.08v2h.76v-2h3.08v2h.76v-2h3.08v2h.76v-2h3.08v2h.76v-2h3.08v2h.76v-2h3.08v2h.76v-2h3.08v2h.76v-2h3.08v2h.76v-2h3.08v2h.76v-2h3.08v2h.76v-2h3.08v2h.76v-2h3.08v2h.76v-2h3.08v2h.76v-2h3.08v2h.76v-2h3.08v2h.76v-2h3.08v2h.76v-2h3.08v2h.76v-2h3.08v2h.76v-2h3.08v2h.76v-2h3.08v2h.76v-2h3.08v2h.76v-2h3.08v2h.76v-2h3.08v2h.76v-2h3.08v2h.76v-2h3.08v2h.76v-2h3.08v2h.76v-2h3.08v2h.76v-2h3.08v2h.76v-2h3.08v2h.76v-2h3.08v2h.76v-2h3.08v2h.76v-2h3.08v2h.76v-2h3.08v2h.76v-2h3.08v2h.76v-2h3.08v2h.76v-2h3.08v2h.76v-2h3.08v2h.76v-2h3.08v2h.76v-2h3.08v2h.76v-2h3.08v2h.76v-2h3.08v2h.76v-2h3.08v2h.76v-2h3.08v2h.76v-2h3.08v2h.76v-2h3.08v2h.76v-2h3.08v2h.76v-2h.86v-.79h-.86v-4.45h.86v-.79h-.86v-4.45h.86v-.79h-.86v-4.45h.86v-.79h-.86v-4.45h.86ZM354.06,52.55h-3.02v-4.45h3.02v4.45ZM354.06,47.31h-3.02v-4.45h3.02v4.45ZM354.06,42.06h-3.02v-4.45h3.02v4.45ZM354.06,36.81h-3.02v-4.45h3.02v4.45ZM357.9,52.55h-3.08v-4.45h3.08v4.45ZM357.9,47.31h-3.08v-4.45h3.08v4.45ZM357.9,42.06h-3.08v-4.45h3.08v4.45ZM357.9,36.81h-3.08v-4.45h3.08v4.45ZM361.74,52.55h-3.08v-4.45h3.08v4.45ZM361.74,47.31h-3.08v-4.45h3.08v4.45ZM361.74,42.06h-3.08v-4.45h3.08v4.45ZM361.74,36.81h-3.08v-4.45h3.08v4.45ZM365.59,52.55h-3.08v-4.45h3.08v4.45ZM365.59,47.31h-3.08v-4.45h3.08v4.45ZM365.59,42.06h-3.08v-4.45h3.08v4.45ZM365.59,36.81h-3.08v-4.45h3.08v4.45ZM369.43,52.55h-3.08v-4.45h3.08v4.45ZM369.43,47.31h-3.08v-4.45h3.08v4.45ZM369.43,42.06h-3.08v-4.45h3.08v4.45ZM369.43,36.81h-3.08v-4.45h3.08v4.45ZM373.27,52.55h-3.08v-4.45h3.08v4.45ZM373.27,47.31h-3.08v-4.45h3.08v4.45ZM373.27,42.06h-3.08v-4.45h3.08v4.45ZM373.27,36.81h-3.08v-4.45h3.08v4.45ZM377.11,52.55h-3.08v-4.45h3.08v4.45ZM377.11,47.31h-3.08v-4.45h3.08v4.45ZM377.11,42.06h-3.08v-4.45h3.08v4.45ZM377.11,36.81h-3.08v-4.45h3.08v4.45ZM380.95,52.55h-3.08v-4.45h3.08v4.45ZM380.95,47.31h-3.08v-4.45h3.08v4.45ZM380.95,42.06h-3.08v-4.45h3.08v4.45ZM380.95,36.81h-3.08v-4.45h3.08v4.45ZM384.79,52.55h-3.08v-4.45h3.08v4.45ZM384.79,47.31h-3.08v-4.45h3.08v4.45ZM384.79,42.06h-3.08v-4.45h3.08v4.45ZM384.79,36.81h-3.08v-4.45h3.08v4.45ZM388.63,52.55h-3.08v-4.45h3.08v4.45ZM388.63,47.31h-3.08v-4.45h3.08v4.45ZM388.63,42.06h-3.08v-4.45h3.08v4.45ZM388.63,36.81h-3.08v-4.45h3.08v4.45ZM392.47,52.55h-3.08v-4.45h3.08v4.45ZM392.47,47.31h-3.08v-4.45h3.08v4.45ZM392.47,42.06h-3.08v-4.45h3.08v4.45ZM392.47,36.81h-3.08v-4.45h3.08v4.45ZM396.31,52.55h-3.08v-4.45h3.08v4.45ZM396.31,47.31h-3.08v-4.45h3.08v4.45ZM396.31,42.06h-3.08v-4.45h3.08v4.45ZM396.31,36.81h-3.08v-4.45h3.08v4.45ZM400.15,52.55h-3.08v-4.45h3.08v4.45ZM400.15,47.31h-3.08v-4.45h3.08v4.45ZM400.15,42.06h-3.08v-4.45h3.08v4.45ZM400.15,36.81h-3.08v-4.45h3.08v4.45ZM403.99,52.55h-3.08v-4.45h3.08v4.45ZM403.99,47.31h-3.08v-4.45h3.08v4.45ZM403.99,42.06h-3.08v-4.45h3.08v4.45ZM403.99,36.81h-3.08v-4.45h3.08v4.45ZM407.84,52.55h-3.08v-4.45h3.08v4.45ZM407.84,47.31h-3.08v-4.45h3.08v4.45ZM407.84,42.06h-3.08v-4.45h3.08v4.45ZM407.84,36.81h-3.08v-4.45h3.08v4.45ZM411.68,52.55h-3.08v-4.45h3.08v4.45ZM411.68,47.31h-3.08v-4.45h3.08v4.45ZM411.68,42.06h-3.08v-4.45h3.08v4.45ZM411.68,36.81h-3.08v-4.45h3.08v4.45ZM415.52,52.55h-3.08v-4.45h3.08v4.45ZM415.52,47.31h-3.08v-4.45h3.08v4.45ZM415.52,42.06h-3.08v-4.45h3.08v4.45ZM415.52,36.81h-3.08v-4.45h3.08v4.45ZM419.36,52.55h-3.08v-4.45h3.08v4.45ZM419.36,47.31h-3.08v-4.45h3.08v4.45ZM419.36,42.06h-3.08v-4.45h3.08v4.45ZM419.36,36.81h-3.08v-4.45h3.08v4.45ZM423.2,52.55h-3.08v-4.45h3.08v4.45ZM423.2,47.31h-3.08v-4.45h3.08v4.45ZM423.2,42.06h-3.08v-4.45h3.08v4.45ZM423.2,36.81h-3.08v-4.45h3.08v4.45ZM427.04,52.55h-3.08v-4.45h3.08v4.45ZM427.04,47.31h-3.08v-4.45h3.08v4.45ZM427.04,42.06h-3.08v-4.45h3.08v4.45ZM427.04,36.81h-3.08v-4.45h3.08v4.45ZM430.88,52.55h-3.08v-4.45h3.08v4.45ZM430.88,47.31h-3.08v-4.45h3.08v4.45ZM430.88,42.06h-3.08v-4.45h3.08v4.45ZM430.88,36.81h-3.08v-4.45h3.08v4.45ZM434.72,52.55h-3.08v-4.45h3.08v4.45ZM434.72,47.31h-3.08v-4.45h3.08v4.45ZM434.72,42.06h-3.08v-4.45h3.08v4.45ZM434.72,36.81h-3.08v-4.45h3.08v4.45ZM438.56,52.55h-3.08v-4.45h3.08v4.45ZM438.56,47.31h-3.08v-4.45h3.08v4.45ZM438.56,42.06h-3.08v-4.45h3.08v4.45ZM438.56,36.81h-3.08v-4.45h3.08v4.45ZM442.4,52.55h-3.08v-4.45h3.08v4.45ZM442.4,47.31h-3.08v-4.45h3.08v4.45ZM442.4,42.06h-3.08v-4.45h3.08v4.45ZM442.4,36.81h-3.08v-4.45h3.08v4.45ZM446.24,52.55h-3.08v-4.45h3.08v4.45ZM446.24,47.31h-3.08v-4.45h3.08v4.45ZM446.24,42.06h-3.08v-4.45h3.08v4.45ZM446.24,36.81h-3.08v-4.45h3.08v4.45ZM450.09,52.55h-3.08v-4.45h3.08v4.45ZM450.09,47.31h-3.08v-4.45h3.08v4.45ZM450.09,42.06h-3.08v-4.45h3.08v4.45ZM450.09,36.81h-3.08v-4.45h3.08v4.45ZM453.93,52.55h-3.08v-4.45h3.08v4.45ZM453.93,47.31h-3.08v-4.45h3.08v4.45ZM453.93,42.06h-3.08v-4.45h3.08v4.45ZM453.93,36.81h-3.08v-4.45h3.08v4.45ZM457.77,52.55h-3.08v-4.45h3.08v4.45ZM457.77,47.31h-3.08v-4.45h3.08v4.45ZM457.77,42.06h-3.08v-4.45h3.08v4.45ZM457.77,36.81h-3.08v-4.45h3.08v4.45ZM461.61,52.55h-3.08v-4.45h3.08v4.45ZM461.61,47.31h-3.08v-4.45h3.08v4.45ZM461.61,42.06h-3.08v-4.45h3.08v4.45ZM461.61,36.81h-3.08v-4.45h3.08v4.45ZM465.45,52.55h-3.08v-4.45h3.08v4.45ZM465.45,47.31h-3.08v-4.45h3.08v4.45ZM465.45,42.06h-3.08v-4.45h3.08v4.45ZM465.45,36.81h-3.08v-4.45h3.08v4.45ZM469.29,52.55h-3.08v-4.45h3.08v4.45ZM469.29,47.31h-3.08v-4.45h3.08v4.45ZM469.29,42.06h-3.08v-4.45h3.08v4.45ZM469.29,36.81h-3.08v-4.45h3.08v4.45ZM473.13,52.55h-3.08v-4.45h3.08v4.45ZM473.13,47.31h-3.08v-4.45h3.08v4.45ZM473.13,42.06h-3.08v-4.45h3.08v4.45ZM473.13,36.81h-3.08v-4.45h3.08v4.45ZM476.97,52.55h-3.08v-4.45h3.08v4.45ZM476.97,47.31h-3.08v-4.45h3.08v4.45ZM476.97,42.06h-3.08v-4.45h3.08v4.45ZM476.97,36.81h-3.08v-4.45h3.08v4.45ZM480.81,52.55h-3.08v-4.45h3.08v4.45ZM480.81,47.31h-3.08v-4.45h3.08v4.45ZM480.81,42.06h-3.08v-4.45h3.08v4.45ZM480.81,36.81h-3.08v-4.45h3.08v4.45ZM484.65,52.55h-3.08v-4.45h3.08v4.45ZM484.65,47.31h-3.08v-4.45h3.08v4.45ZM484.65,42.06h-3.08v-4.45h3.08v4.45ZM484.65,36.81h-3.08v-4.45h3.08v4.45ZM488.49,52.55h-3.08v-4.45h3.08v4.45ZM488.49,47.31h-3.08v-4.45h3.08v4.45ZM488.49,42.06h-3.08v-4.45h3.08v4.45ZM488.49,36.81h-3.08v-4.45h3.08v4.45ZM492.34,52.55h-3.08v-4.45h3.08v4.45ZM492.34,47.31h-3.08v-4.45h3.08v4.45ZM492.34,42.06h-3.08v-4.45h3.08v4.45ZM492.34,36.81h-3.08v-4.45h3.08v4.45ZM496.18,52.55h-3.08v-4.45h3.08v4.45ZM496.18,47.31h-3.08v-4.45h3.08v4.45ZM496.18,42.06h-3.08v-4.45h3.08v4.45ZM496.18,36.81h-3.08v-4.45h3.08v4.45ZM500.02,52.55h-3.08v-4.45h3.08v4.45ZM500.02,47.31h-3.08v-4.45h3.08v4.45ZM500.02,42.06h-3.08v-4.45h3.08v4.45ZM500.02,36.81h-3.08v-4.45h3.08v4.45ZM503.86,52.55h-3.08v-4.45h3.08v4.45ZM503.86,47.31h-3.08v-4.45h3.08v4.45ZM503.86,42.06h-3.08v-4.45h3.08v4.45ZM503.86,36.81h-3.08v-4.45h3.08v4.45ZM507.7,52.55h-3.08v-4.45h3.08v4.45ZM507.7,47.31h-3.08v-4.45h3.08v4.45ZM507.7,42.06h-3.08v-4.45h3.08v4.45ZM507.7,36.81h-3.08v-4.45h3.08v4.45ZM511.54,52.55h-3.08v-4.45h3.08v4.45ZM511.54,47.31h-3.08v-4.45h3.08v4.45ZM511.54,42.06h-3.08v-4.45h3.08v4.45ZM511.54,36.81h-3.08v-4.45h3.08v4.45ZM515.38,52.55h-3.08v-4.45h3.08v4.45ZM515.38,47.31h-3.08v-4.45h3.08v4.45ZM515.38,42.06h-3.08v-4.45h3.08v4.45ZM515.38,36.81h-3.08v-4.45h3.08v4.45ZM519.22,52.55h-3.08v-4.45h3.08v4.45ZM519.22,47.31h-3.08v-4.45h3.08v4.45ZM519.22,42.06h-3.08v-4.45h3.08v4.45ZM519.22,36.81h-3.08v-4.45h3.08v4.45ZM523.06,52.55h-3.08v-4.45h3.08v4.45ZM523.06,47.31h-3.08v-4.45h3.08v4.45ZM523.06,42.06h-3.08v-4.45h3.08v4.45ZM523.06,36.81h-3.08v-4.45h3.08v4.45ZM526.9,52.55h-3.08v-4.45h3.08v4.45ZM526.9,47.31h-3.08v-4.45h3.08v4.45ZM526.9,42.06h-3.08v-4.45h3.08v4.45ZM526.9,36.81h-3.08v-4.45h3.08v4.45ZM530.75,52.55h-3.08v-4.45h3.08v4.45ZM530.75,47.31h-3.08v-4.45h3.08v4.45ZM530.75,42.06h-3.08v-4.45h3.08v4.45ZM530.75,36.81h-3.08v-4.45h3.08v4.45ZM534.59,52.55h-3.08v-4.45h3.08v4.45ZM534.59,47.31h-3.08v-4.45h3.08v4.45ZM534.59,42.06h-3.08v-4.45h3.08v4.45ZM534.59,36.81h-3.08v-4.45h3.08v4.45ZM538.43,52.55h-3.08v-4.45h3.08v4.45ZM538.43,47.31h-3.08v-4.45h3.08v4.45ZM538.43,42.06h-3.08v-4.45h3.08v4.45ZM538.43,36.81h-3.08v-4.45h3.08v4.45ZM542.27,52.55h-3.08v-4.45h3.08v4.45ZM542.27,47.31h-3.08v-4.45h3.08v4.45ZM542.27,42.06h-3.08v-4.45h3.08v4.45ZM542.27,36.81h-3.08v-4.45h3.08v4.45ZM546.11,52.55h-3.08v-4.45h3.08v4.45ZM546.11,47.31h-3.08v-4.45h3.08v4.45ZM546.11,42.06h-3.08v-4.45h3.08v4.45ZM546.11,36.81h-3.08v-4.45h3.08v4.45ZM549.95,52.55h-3.08v-4.45h3.08v4.45ZM549.95,47.31h-3.08v-4.45h3.08v4.45ZM549.95,42.06h-3.08v-4.45h3.08v4.45ZM549.95,36.81h-3.08v-4.45h3.08v4.45ZM553.79,52.55h-3.08v-4.45h3.08v4.45ZM553.79,47.31h-3.08v-4.45h3.08v4.45ZM553.79,42.06h-3.08v-4.45h3.08v4.45ZM553.79,36.81h-3.08v-4.45h3.08v4.45ZM557.63,52.55h-3.08v-4.45h3.08v4.45ZM557.63,47.31h-3.08v-4.45h3.08v4.45ZM557.63,42.06h-3.08v-4.45h3.08v4.45ZM557.63,36.81h-3.08v-4.45h3.08v4.45ZM561.47,52.55h-3.08v-4.45h3.08v4.45ZM561.47,47.31h-3.08v-4.45h3.08v4.45ZM561.47,42.06h-3.08v-4.45h3.08v4.45ZM561.47,36.81h-3.08v-4.45h3.08v4.45ZM565.31,52.55h-3.08v-4.45h3.08v4.45ZM565.31,47.31h-3.08v-4.45h3.08v4.45ZM565.31,42.06h-3.08v-4.45h3.08v4.45ZM565.31,36.81h-3.08v-4.45h3.08v4.45Z"/>
  </g>
  <g>
    <path class="cls-41" d="M780.98,20.65c.16,1.75.52,3.36,1.08,4.84l5.49,1.06c4.46-.63,9.1-.03,13.51.72,2.97-.56,4.15,0,3.53,3.17,1.66-.27,2.78,0,3.74,1.51,2.69-2.58,5.64-1.01,2.63,2,.38,3.07-1.26,3.95-3.67,4.93l.08.4c2.07.09,2.01,1.07,1.82,2.79,3.83,1.77-.67,4.04-2.42.99l-.07.96c1.82.82.97,2.8-.84,2.81-4.42-2.1-4.66-.39-3.2,3.85l-.38.69c-2.49,1.17-.15,1.64,1.36,1.2.9-1.35,2.04-2.32,3.43-2.89-1.26-2.54,2.14-4.78,3.22-2.99.25.41-.81,6.54-1.23,7.37-1.68.44-2.45,1.32-2.31,2.63-.69.67-.42.91.81.73,2.56-3.34,3.16-6.65,3.79-10.73-.05-1.4.02-5.12,1.79-3.58l.44-.67c6.1.91,12.21,1.82,18.32,2.73l.32.78c.85-.51,1.06-.18.46.62.28.08.68.22.67.43-.08,2.2-.98,8.64-1.59,10.68l-.8.42c1.13.85-.7,3.07-1.84,2.49-1.37-.4.45-3.39,1.59-3.26-.28-.08-.67-.22-.67-.43.02-1.63.9-7.71,1.38-9.23l.8-.42c-.86.42-.98.17-.46-.62l-.44.67-17.6-2.62-.32-.78c.42.86.17.98-.62.46.28.08.68.23.67.43-.07,1.11-1.16,9.07-1.43,9.58l-.8.42.74.33c.25,5.25,4.83,8.55,9.78,8.89l.51.71c-.05,1.01-.91,1.29-2.57.82l-3.28-.98c-2.25,2.03-5.39.1-5.12-2.61l-1.04-.75c-.08-1.11-.53-1.25-1.36-.42-2.65-1.3-2.29-.53,1.06,2.31,1.64.04,1.89.79,1.55,2.24,2.47.42,2.84,1.67,1.42,3.62,1.53.6,1.91,2.2.38,3.07-6.12.84,3.2,2.25,4.88,1.4l1.42.83c.3-1.84,1.9-3.77,3.72-2.24.97.81.81,3.01-.66,2.36q-.7-.69,0,0c.45.46.54,1.22.26,2.29,1.18,1.16,3.57,3.7,1.96,5.04l-.77.07c-1.21-2.81-3.57-5.03-6.43-6.11l.66.51-.99,6.65-.8.4c.86-.42.98-.17.46.62.08-.28.23-.68.43-.67,1.66.08,5.28.62,6.9,1.03l.41.8c-1-.36-.71-2.74.12-3.29,1.89-.99,2.06,4.15.02,4.53-1.32.25-8.03-1.45-9.64-1.94-3.12,0-6.24-.33-9.37-1,.45.06.31.15-.43.29l.16-.32c3.17.61,6.36.96,9.57,1.04,3.04.95,6.15,1.52,9.34,1.69l.18.47c1.05.02,1.56,2.44,1.67,3.43.22,1.85.32,3.66-1.68,4.53-.05,2.46-.6,4.72-1.65,6.79.62.99.35,5.17-.22,5.82-1.91,2.22-2.74-1.08-2.88-2.71-.85.2-1.42.05-1.71-.42l-.17-.92c1.92-1.16,3.32-2.7,4.21-4.63l.86-.16c-.27-.08-.68-.22-.67-.43.04-1.92.95-8.14,1.49-9.96l.8-.41c-.86.42-.98.17-.46-.62-.07.28-.23.68-.44.67-4.72-.27-12.57-1.53-17.24-2.57l-.32-.78.26.64c-3.89,9.2-1.98,22.27,11,18.61l.68.56c.35,1.1,1,2.14,1.95,3.11l-.07,1.28c-2.52,1.31.08,4.1,1.43,5.49v1.1c-4.5-.43-8.86-1.2-13.06-2.33-6.85-.17-14.45-1.49-20.79-2.87-2.24.15-4.14-.27-5.7-1.27-1.1.74-2.92.43-3.99-.38-2.49.31-4.66-.15-6.49-1.37-2.78-.35-5.42-.92-7.91-1.71-.93-3.98.55-6.11,3.98-8.08.08-1.39.87-2.42,2.36-3.08.21-1.89,1.19-2.36,2.94-2.7.49-.94,1.18-1.42,2.07-1.43-.49-1.28.44-1.9,2.79-1.86-.64-1.27-.66-1.83.24-2.95.41-1.01-2.29-7.63-2.69-7.74l-1.07.3c-4.18-.57-8.35-1.19-12.52-1.85,3.64,1.2,7.3,2.33,11.01,3.38,1.9,1.34-1.01,5.11-1.83,2.36-.44-.47-11.13-2.04-12.69-2.11-.14,0-.28.15-.43.36-4.08-.96,3.13,1.98,4.18,1.97.2-.49.35-.56.44-.11l2.8.59c.83.23,1.52.57,2.05,1.04l1.28.42c1.64-.11,3.49.4,1.39,1.45l-.44.67-19.93-2.97-.33-.78c-.56.54-1.14.3-1.74-.73-.18,1.18-.6,2.01-1.29,2.49-.22-1.54-.48-3.47-.37-5.01,1.42-20.27,7.48-41.89,9.29-62.32.13-.61.31-1.64.91-1.9,1.41-.62,19.07,2.62,22.32,3,.69.08,1.36.24,2.02-.08,1.11.06,1.77,3.05.6,3.4l.05-.04Z"/>
    <path class="cls-6" d="M823.42,24.76c4.53.78,9.42,1.11,13.87,2.05,2.33.49,4.61,1.97,7.26,1.83l-13.81,87.75-57.78-8.6c-3.37-2-7.65-.99-10.75-3.09.41-.98,1.12-.78,1.44.21,2.03.47,7.39.97,8.41,1.34.4.15.58.87,1.05,1.1.99.48,4.9.56,5.32-.43.55-1.3-3.18-.68-2.12-2.85.93-1.9,2.4,1.24,2.57,1.29.85.27,2.58-1.72,2.66.24.04,1.11-2.89,1.19-2.57,2.69,1.94,1.03,2.32-.52,2.87-.66,1.09-.29.79.79,1.11,1.07.4.35,3.42.84,4.06.79.29-.02.29-1.05,1.56-.49.26.11-.03.67.64.86,3.44.98,12.51,2.17,16.23,2.39,1.15.07,2.25-.49,3.36-.28.67.13.23.75.92.94,3.47.98,8.12.81,11.73,1.72-1.2-1.2-2.24-2.15-2.81-3.84-1.07-3.15.86-1.6.94-3.23s-2.77-1.57-1.31-3.7c1.13-.28,2.19-.91,2.64.77.31,1.15-.66,2.08,1.3,2.39.11-1.35.57-2.78.6-4.12.01-.61-.58-1.08-.44-1.88.12-.69.84-1.36,1.02-2.13.34-1.47.31-3.72.77-4.94.07-.17,1.25-.46,1.53-1.67.47-2.01-.59-3.98-.97-5.86l-19.25-2.87c.08-.85-.03-.66.64-.64,2.26.05,5.02,1.08,7.22,1.1.84,0,1.41-.51,1.92-.48.67.03,1.16.82,2,1.07.96.29,6.34,1.09,7.16.97,1.56-.22,1.26-2.06,1.02-3.2-.08-.39-.52-.62-.54-.7-.23-.81-.04-1.18-.62-2.27-1.41-2.67-2.93-1.53-1.6-5.06.09-.25.87-.57.42-1.43-1.12-2.17-3.11.57-2.75,2.19-.97.2-1.72-.87-2.3-1-.53-.13-1.01.32-1.51.3-1.41-.07-5.48,0-5.99-1.48-.74-2.14,3.01-.67,3.02-2.32,0-.89-1.55-1.27-2.29-1.26,2.08-1.69,2.93-3.5-.65-3.04l.37-2.52c-1.67.42-1.71-.58-2.32-1.07-1.09-.88-2.27-.99-2.18-2.83.13-2.54,1.86.3,2.28.25.24-.03.93-1.28,1.66-1.22.67.47-.02,1.35.35,1.8.29.36,1.15.46,1.25.69.16.37-.28,1.17-.04,1.79.05.12,1.84,1.61,1.97,1.63.81.12,1.96-1.04,2.08-1.04,1.41,0,4.44,1.87,6.23.93l.05-.78c2.21-.71,4.2-1.8,5.85-3.43l.96.08c.57-.58,1.72-1.65,1.84-2.49l1.72-11.52s-.42-.61-.46-.62l-19.08-2.84c-1.35-.2-.96,3.19-1.07,3.71-.35,1.65-1.07,5.94-1.48,7.12s-2.47,2.83-2.52,4.61c-1.95-.92-4.62-.23-6.6-.97-.2-.08-.15-1.46-.84-.87-1.05.9,3.77,4.92,3.89,5.93.1.81-.45.4-.92.45-3.27.35-2.04.1-2.33-1.9-.12-.87-.95-.91-1.03-1.46-.16-1.02.42-2.72-1.28-3.24-.49-.15-2.08,2.27-2.32,2.84-.18.43-.97,3.82-.88,4.01.17.37,1.14.76,1.11,1.08-.03.36-1.42,1-.68,2.78.57,1.36,3.45,1.81,2.16,4.38-.55,1.1-1.54-.09-2.26-.04-1.32.08-1.27,2.48-1.87,3.34-1.41-.26-1.94-1.42-3.53-.89-.1-.76,1.72-3.28,1.61-3.44-.05-.07-1.05-.22-1.52-.64-.21-.18-1.29-2.07-1.3-2.24-.04-.86,2.07-1.56.94-2.94-1.23-1.49-2.99.4-3.2,1.73,0-.9-1.56-2.41-1.63-2.64-.2-.64,1.65-.73,2.24-1.29,2.08-1.96-.38-1.7-.75-2.71-.29-.79,1.56-3.31,2.66-2.92s-.87,1.51-.49,2.12c.03.05.78.24,1.01.53-.42-.97,2.46-4.59.65-4.54-1.67.05-4.47,1.22-3.75-1.81,1.99.24,3.96.65,5.95.9.97.12,1.96-.21,2.93.02,1.21.28,1.23,1.4,2.32,1.5.94.09,1.7-.92,2.72-.75.77.13,1.01.76,1.43.91.54.2,1.12-.13,1.66.03.59.17,1.11,1.07,1.96.96-.66-2.94,2.34-2.75,2.7-3.52.25-.55-.1-1.22.02-1.73.37-1.5.21-1.09.35-2.26.09-.74.63-1.43.59-2.25-3.58-.66-1.49,2.03-2.08,2.99-.35.57-1.35.65-1.7.97-2.23,2.05-1.34,3.23-5.56,2-.48-1.62,1.41-2.05,1.47-2.22.35-1.04-1.44-3.22-.81-4.8.08-.19,2.21-.84,2.53-.81,1.52.13,2.68,2.25,3.52-.19-2.02-.36-.83-1.98-1.15-2.5-.1-.17-1.03-.22-1.34-.76s.02-1.37-.16-1.65c-.25-.4-1.42.07-1.19-1.53.04-.27.57-1.52.65-1.55,1.61-.7.79,2.03,1.01,2.84.12.45.78.25.95.45.27.33-.06,1.34.29,1.73.23.26,1.03.33,1.44.7.39.35.36,1.12.62,1.18.08.02,1.57-.09,1.64-.14,1.04-.68-1.17-.81-1.35-1.14-.31-.59.09-2.26.02-2.36-.18-.24-2.12.21-2.04-1.23s1.23-.95,2.11-1.5c2.5-1.6,1.16-2.14,1.63-3.81.18-.62,1.85-1.45,1.09-2.25s-2.47,1.35-3.01,1.36c-.59,0-1.1-1.42-1.98-1.68-.79-.23-2.34.56-2.53-.68-.15-.96.82-2.84-.88-3.22-.76-.17-1.28.48-1.92.47-.82,0-2.29-.78-3.52-.92-1.86-.21-5.83-.46-7.65-.37-.85.04-1.45.78-2.36.74-1.4-.07-3.89-1.35-5.61-1.26-.99-.51-.87-4.15-.94-5.23.44-.3.84-.31.99.19l.69,3.69c1.15.3,2.37.53,3.57.62,9.03.7,18.17,1.36,27.06,1.92,1.54.1,3.07.17,4.61.18.55,0,2.6-.02,2.87-.34-.22-3.39.66-4.11,2.64-2.14h0Z"/>
    <path class="cls-36" d="M761.98,81.48c-1.19-.27-5.51-.98-6.16-1.62-.31-.31-.11-1.1-.05-1.14.67-.49,4.32.65,5.2.79,2.85.46,6.77.63,9.4,1.36,1.75.49,1.07,2.07,2.53-1.07-.35-.47-9.6-2.73-11.14-3.44-.32-.15-2.06-1.11-1-1.51,1.46-.55,10.64,1.76,13.19,1.81.76.01,1.63-.58,1.88-.48.39.15,2.99,7.3,3.02,7.71.12,1.6-.83,1.96-.89,2.37s.9,1.18.55,1.74c-1.01,1.61-2.69.21-2.82.31-.27.21.33,1.5-.06,1.85-.32.28-1.03.13-1.37.35-.42.26-.39.87-.64,1.07s-2.21.51-2.52.92c-.28.37-.17,1.12-.52,1.67s-1.76,1.02-2.04,1.53c-.2.35.11.92-.23,1.43-.58.89-3,2.08-3.46,2.71-1.22,1.68-.04,3.5-1.21,5.08-.46-.11-.99-.09-1.44-.21-1.18-.33-2.37-.31-3.49-1.1-1.04-.74-3.88-4.41-4.9-5.66-2.87-3.52-7.9-9.81-7.59-14.39.08-1.24.35-2.43.9-3.54.58-.3,1.59,1.71,2.12,1.79l20.69,3.08.16-1.08c-.18-.25-2.59.03-2.83-.79,2.5.48,3.62-.09,3.38-1.7-.06.55-.15.62-.27.14l-7.83-1.17c-.12.29-.24.51-.33.5-1.37-.14-3.12-.75-4.34-1.38,1.18.59,2.42,1,3.73,1.25l.38.84v-.02Z"/>
    <path class="cls-17" d="M786.38,14.09c-.08.9-.98,1.18-2.7.84-.63-.17-2.12,1.31-1.7,1.56l8.88,1.19c4.16,1.58,7.87,1.9,12.26,1.81,5.85,1.7,11.68,2.7,17.48,3.02.34-1.25.88-1.91,1.61-1.98-.74,1.97.36,2.7,1.21,4.23-.68-.12-1.17-.19-1.74-.63-.59,1.79.89,3.39-1.57,3.72-3.45.46-11.68-.5-15.61-.76-5.97-.4-11.93-.9-17.84-1.18-.79-.04-4.09-.47-4.49-.84-.62-.56-.25-3.62-1.17-4.42-.08-1.44-.55-2.81-.6-3.4-.01-.13.79-2.21.93-2.43,1.11-1.79,3.42-.93,5.06-.73h-.01Z"/>
    <path class="cls-22" d="M822.21,20.53c-.95,1.71-.15,2.9-2.84,2.87-4.91-.05-11.76-2.53-16.78-3.25-1.78-.25-3.96.22-5.88-.08-1.81-.29-4.14-1.31-5.99-1.67-1.4-.27-9.28-1.02-9.56-1.41-.46-.65.7-2.16,1.5-2.52,1.51-.68,2.41.17,3.72-.38,8.65,1.05,17.39,1.17,26.06,1.68,2.04.12,4.94,1.26,6.74.43.44-.2.62-.63.85-.78,1.39-.59,2.68-.95,4.07-.13,2.41,2.38-.87,3.41-1.88,5.24h0Z"/>
    <path class="cls-24" d="M824.09,15.29l-4.07.13c1.68-1.08,2.19-1.99,4.07-.13Z"/>
    <path class="cls-11" d="M773.76,49.38l-1.32,1.03c-1.48-1.3-2.15-.82-1.99,1.42-.61.52-1.55,1.07-2.29.59-.42-.27-3.86-5.08-4.63-6.04-2.33-2.94.19-3.81,2.85-2.97-.81-1.44.07-2.87,2.65-4.31,2.54-1.78,6.97-5.52,9.88-5.91,3.61-.48,6.92,1.02,6.06,5.14-1.04,5.03-7.86,7.64-11.21,11.04h0Z"/>
    <path class="cls-3" d="M829.11,60.58c-.79.81-2.57,2.26-3.54,2.78-.36.2-3.15,1.33-3.33,1.35-3.48.3-8.43-2.39-10-5.56-.34-.69-1.12-3.78-1.03-4.36l1.56-10.44s.58-.47.62-.46l18.36,2.74s.47.58.46.62l-1.5,10.08c-.12.78-1.59,2.22-1.59,3.26h0Z"/>
    <path class="cls-33" d="M818.25,103.86c-1.04.26-1.99.73-3.05.85-4.35.5-9.12-2.01-10.64-6.25-.84-2.36-.28-8.58.32-11.15.14-.61.9-3.35,1.42-3.27l18,2.68s.47.58.46.62l-1.61,10.8c-.05.31-1.19,2.32-1.5,2.73-.94,1.26-2.67,1.91-3.4,2.98h0Z"/>
    <path class="cls-35" d="M824.87,81.66c.21.84-.01,2.4-.12,3.29l-7.74-1.15s-.47-.58-.46-.62l1.13-7.56c.27-1.79,4.85,2.21,5.46,3,.25.34,1.68,2.79,1.74,3.04h-.01Z"/>
    <path class="cls-9" d="M815.6,74.75l-1.21,8.1s-.58.47-.62.46l-7.2-1.07c-2.11-.31,2.27-5.25,3.06-5.81,1.37-.97,4.3-1.84,5.97-1.67h0Z"/>
    <path class="cls-7" d="M779.97,94.1c.12-.38.6-.74,1-.58l.48,1.93,14.63,2.9,2.57,1.29c-.52.6-1.05.35-1.69.32-5.31-.21-10.64-1.12-15.93-1.67-.64,2.57-2.21,1.85-3.14-.08.4-.5.91-.49,1.55.03.17-.36.44-.76.82-.88,1.6-.47,6.44.32,7.87,1.27.47-.31.64-.69.33-1.17-2.77-.26-5.35-.83-7.74-1.7.27-.95.02-1.51-.74-1.65h-.01Z"/>
    <path class="cls-29" d="M779.91,94.46c.56-.46.89.06.99,1.56,2.1.62,4.25,1.01,6.46,1.18,1.56.1,2.87,1.17.76,1.43-2.47-.25-4.9-.67-7.4-.69-.6.11-.72.78-.8,1.31-.09.07-1.77-.85-2.05-1.04-.32-.22-1.94-1.75-1.91-1.94l3.94-1.8h0Z"/>
    <path class="cls-13" d="M785.9,49.35c.54.04.95.48,1.23,1.34,2.43.43,4.81,1.01,7.14,1.75.32-.22.82-.13,1.08.16.51.33.23.53-.83.61-2.71-.13-5.38-.28-8.03-.46-.31.24-.54,1.11-1.11,1.3-3.11-2.92-4.75-3.39.52-4.7Z"/>
    <path class="cls-8" d="M767.27,83.01c-.42-.11-1.63-.93-2.05-1.04l.34-.4c1.87.67,3.5.69,4.86.08-.03.16-.08.31-.17.42-.45.56-7.12-.97-7.75-1.6.85.41,1.75.74,2.69.99l.03.52c-1-.27-2.27-.19-3.24-.48-1.23-.37-3.57-1.07-4.1-2.08l12.78,1.9c.71.11.29,1.64-.47,1.96-.56.23-2.25-.07-2.91-.25v-.02Z"/>
    <path class="cls-28" d="M794.33,52.08c2.77.59,5.66.87,8.41,1.62.53.14,1.05.45.42.8l-16.66-1.75c.16-.12.27-.37.58-.28,2.48.36,4.96.48,7.45.74,1.32-.12,1.59-.33.83-.61-.36-.06-.72-.09-1.08-.16-.3-.15-.28-.27.05-.36Z"/>
    <path class="cls-27" d="M779.97,94.1c1.84-.1.62.98.92,1.55.43.81,5.67,1.18,6.93,1.44.86.18,5.21,1.19,5.49,1.38.14.1.38.51.27.59-1.88.26-3.62-.25-5.45-.44l.5-.85c-1.3-.81-7.58-.75-8.04-1.73-.18-.38.14-1.08-.05-1.41-.11-.21-.57-.12-.62-.17-.01-.01.03-.27.05-.36Z"/>
    <path class="cls-10" d="M769.03,39.11c-.13,1.2-2.73,2.05-2.96,2.74-.25.75,1.43,1.56,1.07,2.5-2.69-1.4-5.39-1.67-3.61,2.04-.38-.48-1.7-1.54-1.49-2.2,1.72-1.51,2.08-2.16,4.13-.73-1.63-2.31,1.24-3.22,2.86-4.36h0Z"/>
    <path class="cls-26" d="M785.9,49.35c1.93-.48.48.11,1.51,1.28,2.38.22,4.61.95,6.91,1.44l-.05.36c-2.43-.48-4.84-1.03-7.28-1.5l-1.09-1.59h0Z"/>
    <path class="cls-2" d="M773.76,49.38c-1.1,1.11-1.09,2.19-2.98.29-.12,1.02.57,1.39-.33,2.16l-.24-3.35c1.84.85,1.23,2.69,3.54.89h.01Z"/>
    <path class="cls-44" d="M822.65,74.33c-.04.07-1.37.77-1.54.5-.29-3.5,2.36-1.92,1.54-.5Z"/>
    <path class="cls-5" d="M832.25,44.48l-8.1-1.21s-.47-.58-.46-.62l1.07-7.2c.02-.12.47-.38.67-.41,3.02-.48,8.16,6.28,6.81,9.44h.01Z"/>
    <path class="cls-41" d="M813.28,40.92c.16-.6.11-1.1.44-1.77.73-1.47,1.74-2.03,2.52-3.31-.43-.78-4.61-.6-3.28-2.29.09-.11,2.38-1.19,2.52-1.17,1.14.17,1.05,2.57,1.26,2.77.56.54,2.26-.89,3.02-.65.28-.96-.83-1.02-1.33-2.05-.17-.34-.5-.97-.37-1.3,2.63-1.6,3.24.32,2.53,2.75,5.4-1.13,1.85,6.11,1.79,9.1-.33.39-.72.53-1.21.55-1.04.04-6.57-.78-7.55-1.12-1.53-.53-.43-1.16-.33-1.52,2.64.48,5.34.86,8.08,1.15l.45.85c-.27-.12-.66-.29-.66-.52.01-.84.85-6.78,1.09-7.35l.8-.41-.52.64c-3.7-.18-6.8,2.33-8.37,5.55l-.87.08v.02Z"/>
    <path class="cls-41" d="M813.04,37.57c1.09,1.7-3.41,1.87-3.56,1.68-.47-.64,1.42-1.38,1.15-2.12.12-.36.34-.54.72-.55.08,1.2.65,1.53,1.69.99Z"/>
    <path class="cls-16" d="M824.33,77.89c.04-.5.11-.97.4-1.4,1.18-1.76,3.64,1.65-.4,1.4Z"/>
    <path class="cls-21" d="M813.04,37.57c-.59,1.96-3.11.75-1.69-.99.59,0,1.39.52,1.69.99Z"/>
    <path class="cls-4" d="M828.47,82.19c-.09.07-2.54-.05-2.07-.85,1.02-1.77,3.03.17,2.07.85Z"/>
    <path class="cls-41" d="M791.83,63.85c-.14.13-2.16-1.65-1.53-2.07.75-.49,1.87,1.32,1.53,2.07Z"/>
    <path class="cls-41" d="M804.49,48.07c-.42.31-2.16-.36-1.28-1.29.72-.74,2.03.73,1.28,1.29Z"/>
    <path class="cls-38" d="M769.31,86.63c.69-1.18,5.47-9.26,6.01-9.41.58-.16.79,1.08.98,1.51.81,1.87,1.35,3.92,2.17,5.8l-.31.83c-2.26,1.43-4,4.64-6.05,6.11-.82.59-2.33,1.01-3.34,1.33-.15.31-.27.28-.36-.05-2.19.31-4.08.48-1.75-1.86.75-1.52,1.64-2.94,2.66-4.26h0Z"/>
    <path class="cls-1" d="M768.45,85.02c.13.18-.42,2.79-1.28,2.42-4.21-1.45-8.85-2.07-13.03-3.51-.62-.21-2.33-.38-1.88-1.33l16.2,2.41h0Z"/>
    <path class="cls-19" d="M773.64,77.33c.1.13-.38,1.36-.56,1.54-.59.6-7.4-1.78-8.61-2.28-.35-.14-1.07-.26-.91-.76l10.08,1.5h0Z"/>
    <path class="cls-32" d="M751.5,91.34c.25.05,3.39,3.52,3.47,3.83.17.6.06,1.7-.63,1.74-.51.03-3.32-3.87-3.4-4.53-.06-.49.18-1.11.56-1.04h0Z"/>
    <path class="cls-18" d="M769.31,86.63c-1.16,1.97-2.08,4.07-3.46,5.92l2.55.2c-.12,1.13-1.29,1.39-1.91.45-.34.07-1.5.58-1.54.51l.68-2.1c-.91.19-1.55-.49-2.1-.68.74-.35,1.53-.72,2.37-1.12-.05.23-.17.43-.4.52-.85.33-3.79-.73-4.8-1.13-.08-.03-.15-.11-.21-.2,1.91.36,2.91,1,3.02,1.92-.77-.27-4.59-1.38-4.87-1.84-.07-.12.16-.77.15-1.07l7.56,1.13c.32.2-1.42,2.72-.09,1.83,1.1-1.29,1.49-3.5,3.04-4.33h.01Z"/>
    <path class="cls-41" d="M768.76,92.8c1.03-.07.79.71.47,1.29-.74,1.36-3.36.85-2.74-.89.84-.17,1.11-.23,1.91-.45.11-.03.26.09.36.05h0Z"/>
    <path class="cls-12" d="M830.63,47.92l-1.37,9.18c-.03.19-.87,1.65-1.08,2-3.47,5.79-11.81,5.07-14.7-.88-.2-.41-.92-2.63-.88-2.87l1.48-9.9,16.56,2.47h0Z"/>
    <path class="cls-42" d="M823.18,88.03l-1.53,10.26c-.02.15-1.44,2.24-1.68,2.49-4.12,4.6-12.88,2.63-14.33-3.45-.11-.45-.43-2.32-.39-2.59l1.29-8.64s.58-.47.62-.46l16.02,2.39h0Z"/>
    <path class="cls-34" d="M813.08,81.74l-5.04-.75c-.59-1.8,4.72-5.02,5.66-4.68,1.05.38-.27,4.53-.62,5.43Z"/>
    <path class="cls-26" d="M795.35,52.6c.34.06,4.52.43,3.13,1.2-1.32-.15-2.64-.45-3.96-.59l.83-.61Z"/>
    <path class="cls-14" d="M765.22,81.97c-.74-.22-1.7-.96-2.82-.79l.11-.72,7.92,1.18c.21,2.24-3.75.76-5.2.33h0Z"/>
    <path class="cls-23" d="M830.66,42.77l-5.4-.8c.3-.93.33-5.28,1.35-5.32s4.92,4.52,4.04,6.13h.01Z"/>
    <path class="cls-39" d="M813.28,40.92c.04-.18,1.7-2.8,2-3.14,1.62-1.89,5.21-3.77,7.77-3.13l-1.23,8.28c-2.33-.62-5.52-.44-7.73-1.16-.38-.12-.89-.42-.8-.85h-.01Z"/>
    <path class="cls-15" d="M820.23,31.28l-.8,1.72c-1.17-1.35-1.12-2.34.8-1.72Z"/>
    <path class="cls-43" d="M815.69,34.65c-.18.13-1.95.06-1.3-1.11.72-1.31,1.98.61,1.3,1.11Z"/>
    <path class="cls-25" d="M768.03,85.33l-.86,1.74-8.96-2.47c-.09-.4,1.29-.54,1.36-.53l8.46,1.26Z"/>
    <path class="cls-30" d="M763.52,90.92c-.74-.27-1.94-1.6-3.08-1.57l.05-.36,5.4.8c-.23,1.47-1.07,1.6-2.37,1.12h0Z"/>
  </g>
</svg>