<?xml version="1.0" encoding="UTF-8"?>
<svg id="Layer_1" xmlns="http://www.w3.org/2000/svg" version="1.1" viewBox="0 0 2650.6 3286.5">
  <!-- Generator: Adobe Illustrator 29.8.1, SVG Export Plug-In . SVG Version: 2.1.1 Build 2)  -->
  <defs>
    <style>
      .st0 {
        fill: #242424;
      }
    </style>
  </defs>
  <path class="st0" d="M2637.2,132.1c-5.1,17.5-29.7,36.1-30.2,53.4-.4,13.4,12.6,33.1-14.8,32.2,0,3.8,6.1,4,7.8,5.9,2.8,3.3,3.2,7.9,6.6,11,13.7,12.1,32.9,19.2,42.3,37.5,7.5,3.4,2.6-16.2,5.7-20.9,2.4-3.7,9.6,1.6,16-1,1-.4,14.3-12.7,14.5-13.6.8-3.5,1-21.8.1-24.8-1.7-5.5-18.3-10.9-26.4-8.5-5.4,1.6-10.8,12.9-14.3,9.2-1.7-1.8,7.3-12.5,8.9-16.7,6.7-18.2-3.4-48-16.1-63.6h0Z"/>
  <path class="st0" d="M-91,184c-3.3.2-59.3,20.9-61.3,23.2-5.3,6,19.5,18.4,24.7,19.6,12.6,3,25.6,1.3,37.9-1.4-2.8,6.3-11.8,5.4-17.4,9.1-8.1,5.3-12.9,20.5-5.1,26.5,7.4,5.8,26,1.5,33-4.4,3.1-2.7,3.8-7.7,4.1-7.9,1.8-1.2,14.8,10.5,17.4,7.8-3.4-21.5,13.7-38.7,14.5-59.6-22.1,16.9-27-14.2-47.7-12.9Z"/>
  <path class="st0" d="M951.9,546.6c6.1-12-7.8-21.2,16-18.1,1.7-8.9-8-11.8-12.2-18.9-2.6-4.3-12.2-32.5-19.7-27.7-.5.3-.9,7-5.8,9.2-5.9,2.7-11.6-1.2-17.6-.4-19.8,2.6-32,41.5-40.5,55.9,20.9,2.1,39.2-3.7,52.3-18.1-.7,6.8-4.9,11.5-2.3,18.9,5.4,16,23.3,12.2,29.9-.8h0Z"/>
  <path class="st0" d="M1793.1,580.3c-15.1,12.6-14.1,2.8-25.3.5-19.8-4.1-42.6,18.2-56,29.3,11.8,9.5,29.1,5.8,43.5,6.5-5.8,7.7-7.8,14.3-2.5,22.9,6.7,1.2,15.2.9,21.1-2.5,11.3-6.3-.2-16,22.1-10.1-7.8-16.2-2.2-29.8-2.9-46.6h0Z"/>
  <path class="st0" d="M982.3,581.5c-4.1,1.2-36.9,23.8-37.5,26.2,2.5,14.9,35.8,5.9,40.6,8.9-3.2,3.7-4.2,22.2-2.9,23.3,1.1,1,16.6,0,20.3-1.3,13.4-5.3.7-20.8,23.3-9l-2.9-46.6c-16,6.9-24.2-6.3-40.8-1.5h0Z"/>
  <path class="st0" d="M2806.8,1756c-9.8-13.6-35.8-12.7-46.5-18.2-8-4.1-69-43.1-71.8-46.2-17.7-19.4-34.4-59.5-51.3-83.1,26.6-7.1,85.4,6.9,112.8,0,37.8-9.5,12.6-36-20.5-46.2-51.2-15.7-162.9,1.3-149.5-55.9,4-17.2,82.7-40.7,36.6-54.9-28.5-1.4-55.7-3.7-81.5-6.7.8-12.9,1.6-25.5,2.4-37.6,2-.9,4.1-1.6,6.1-1.8.5,0,1,0,1.2,0,53.9-4.6,85.2-29,153.9-36.9,16-1.8,35,3.6,51.5-4.5l-10.3-23.1,61.4-18.7c-14-27.1-59.9-29.1-82-36.8-67.5-23.5-67.1-24.3-123.1-64.6-10.8-7.8-45.7-12.4-41-32.2,5.4-22.5,82.1-12,102.5-14.1,7.1-24.7-33.3-29.2-51.2-37l30.5-23c-62.7-24.1,13.6-25.6-30.6-55.4l41-13.8c6.8,0,13.7,0,20.5,0,11.6,1.2,39.1,5.1,30.7-13.7-5-11.2-80.6-57.9-102.5-78.6-7.1-6.7-19.8-8.5-20.3-9.4-13.3-20.6,29.8-24.2,51.1-27.5,7.5-1.2,37.9,5.6,51.3,0,.9-21.1-26.7-6.8-31.1-13.9-22.2-36.2,22.1-43.4,20.8-46-4.7-7-14.7-9.3-20.5-13.9-29.8-23.8-63.4-25.2-90.3-32.3,0-12,0-24,.1-36.2l59.5-5.5-10.5-27.5,51.3-13.9-100.7-51.4c-.4-58.9-1.4-119.9-2.8-182.9h14.9c1.8-9.2-6.1-19.1-15.5-25.2-.4-14.3-.7-28.7-1.2-43.1,8.3-3.3,16.1-6.1,16.7-6.9,4.6-5.7-15.6-11-17.5-19.2,0-1,0-2,0-3.1.7-7.4,6.7-20.9,13.2-21.9,22.4-3.4,18.7,36.7,18.9,49.4l14.5-10.4c-3,16.8,26.8,23.4,29.2,6.6,2.8-19.5-1.6-23.8-17.6-35.1,22,7.9,41-6.8,48.7-24.7-.3-3.8-38.8-22.9-45-24-17.8-3.2-18.7,7.3-25.5,7.3-19.5.1-2.2-23.2-1.6-30.2.7-7.1-3-12.4-2.7-17.7.3-5.1,6.6-14.1,7.9-21.5,3-17.8,1.2-31.1-12.2-44.8-4.6-4.7-14.1-5.8-13.2-12.9,6.9,4.3,22.4-11.3,24.6-15.6,5.8-11.2,0-33.3-5.1-44.6-2.4-5.3-8.1-9.2-10.1-14.3-4.1-11-5.9-30-9.5-42,11.3-.7,22.2,4,33.6,2.8,6.4-.7,3.2-6.4,5.6-5.4,3,1.2,4.4,6.8,10.2,5.2-4.7-22.5,11.4-8,23.3-14.2,16.7-8.8-2.8-31.1-16.7-34.4-10.6-2.5-28.7,2.8-29.8,1.9-3.8-3,9.3-8.3,11-14.8,2.4-9.4.6-20.1-2.3-29.2-5-1.1-5.8,1.8-8.7,3.9-7.8,5.5-26.7,19.5-31.5,26.3-1.3,1.9-11.5,19.5-11.8,20.6-1.3,5.5,8.4,4.9,8.6,7.7.3,2.7-4.4,11.7-7.4,14,0-6.5-6-9.6-13-10.2-.3-4.9-.6-9.8-.8-14.8h-56.6c-.7-5-1.7-10.2-5.3-10.9-2.2-.5-6.8,2.4-10.8,1.8-3.9-.6-7.9-5-11.8-4.3-3.5.6-9.8,8-15.3,13.5h-17.1c2.4-6.4,7.9-14.9,7.2-17.6-5.7-7-19.2-4.8-27.1-1.2-15.1,7-12.8,30.6-26.5-.3l-13.1,12.9c-.2-5.1-12.5-31-16-31-10.4,3-13.9,22.9-16.6,25.3-.9.8-22.7,8.2-24,8.4-9.8,1.7-1.8-16-1.6-19.9.2-4.3-.1-6.1-4.3-8.7-2.5-.4-14.9,5.6-17.5,7.7-2.5,1.9-5.2,10.6-7.1,7.9-1-1.5,2.4-6-4.4-5.2-6.9.8-12.1,10.5-20.3,10.5l4.3-20.7c-10.9-3.2-20.8-3.6-32.1-1.5-25.4,4.7-29,22.7-46.2,33.4h-9.2l-2.5-24.2c-5.3-5.5-18.2,18-19.7,19.9-1.8,2.3.5,4.8-6.5,3.4,2.5-19.5-17.8-31.8-23.3-49.2-14.3,13.4-27.2,31-26.3,50.1h-.5l-7.5-20.8-22.3-29.3c-11.3,15.9-25.2,31.8-30.9,50.1h-13.9c-5.4-9.6-10.9-20-16.2-19-5.1,1-4.4,10.1-4.4,19h-25.8c.1-.2.2-.3.3-.5.7-1,6.3-1.1,7.6-4.6,1.8-4.7-.1-11.4.4-16.5-7.7-1.6-14.6,6.1-21.4,5.3-1.7-.2-1.5-4.1-4-5.1-3.8-1.4-8.5-.6-13.4-3.1-11-5.6-19.3-16.7-17.8-28.2-5.2.2-19.8,15.1-24.8,19.4-2.8,2.3-8.2,2.5-10.7,4.7-4.5,4-8.2,22.9-15.5,15.8-3-2.9-10.4-8.6-10.8-9.2-2-3.1,1.2-9.8-2.1-9.9-22.1-.4-34.9,28.5-56.6,28.5l14.5-25.9c-3.8-3.3-24.4,18.3-29,15.5l-16-20.7c-4.6,0-17.2,23.5-19,34.5h-5.1l-13.7-11.3-4.2,11.3h-4.2c-.9-4.1,2-8.1-2.2-14.8-2.9-4.6-29.5-24.4-25.7-13.3,1,3,11.5,12,8.7,14.3-18,0-24-18-42.1-20.8-9.2-1.4-.6,6.7-1.5,7.8-.5.6-15,5.4-15.8,5.4-1,0-5.5-8-8.7-10.7-3.6-3-23.7-18-26.3-18-6.6,6.2,2.7,30,1.4,31.1-.7.6-18.2,3.4-20,2.3-1.3-.8-6.7-18.6-13.4-20.4-7.9,3.3-14.5,23.3-16.7,25.3-.8.8-20.4,7.9-21.6,8-12.5,1-.8-21-3.9-28.1-12.6-1-19.6,8.8-27.6,15.5-4.3-13.3-17.8,5.7-27.6,7.8-5.4-6.2,26.4-31.5-21.6-25.7-28.6,3.5-31.7,23.5-50.1,34.3h-9.6c.2-53.7-20-1.1-24.8-1-8.3-17.1-15.5-35.4-30.5-49.2-2.2,10.6-14.6,16.9-18.1,26.6-2.9,7.7-1.3,12-2.2,18.8-.6,4.7,1,4.2-5.8,3.9,1.2-19.5-16.9-33.8-27.6-49.2-6.6,11.6-18.6,23.9-24.3,35.3-2.6,5.2-3.7,10.1-4.9,14.8h-14.3c-12.5-20.2-21.5-27.9-22.2,0h-25.2c2.2-2.2,8.1-3.5,9.9-8.6,1-3-.3-12-1.9-13-5.9-3.8-17.7,7.7-18.8,7.7-2.1-.1-3.1-5.9-5.1-7-2.7-1.5-7.7-.5-10.6-2.1-15.6-8.9-13.8-14.3-38-9l-2.9-25.9h-5.8c-19.2,15.7-34.8,28.8-47.9,49.2-3.9-4.5,2.9-11.4,1.7-16.5-1.2-5.1-17.9.8-9-14.6-14.6-3.5-42,26-47.9,26-16.5,0,3.4-16.8,0-23.4-2.8,1.8-12.9,9.9-14.6,9.9-3.1,0-6.3-8.5-10.2-6.1-6.8,10.4-14.2,21.3-16.8,33.3h-5.9c-4.2-4.9-7.1-11.4-15.1-11.3v11.3h-4.5c-2.6-4.6-1.9-10.7-5.8-16.3-3.3-4.7-26.7-20.5-24.6-14.4l13.1,22c-15.6-8.4-28.3-21.8-46.5-25.9,1.2,7.5-9.8,8.6-10.5,14.3-.8,7.3,10.2,12.6,11.9,19.4-35.9,3.2-12.3-4-11.6-6.6,2.8-10.1-29.4-36.9-39.2-42.6-11.4,14.8,7.9,36.2-21.8,33.7l-1.4-10.4c-5.1,3.5-8.7,10.9-16,10.3,2.7-4.7-9.9-28.4-13.1-28.4-10.9,3-14.5,23.3-16.5,25.4-1,1-24.5,7.1-28.5,8.2,10-56.1-21.6-13-24.7-13s-4.4-5.5-8.4-4.9c-1.8.2-18,14.2-19.2,12.8,11.6-34.3-14.4-32.3-40.5-19.2-16.8,8.4-21.5,26.4-40.9,32.2l-3-28.5c-6-6.4-21.2,25.5-26.1,25.9,1.7-10.7-4.9-19.5-10.1-28.6-2.4-4.2-13.8-23.8-18.9-20.7-1.3.8-12.8,20.2-16,23.3l-7.2,23.3c.2-19.4-19.3-32.1-26.2-49.2h-2.9c-10.6,18.7-28.4,36.5-31.5,57.9h-6.1l-22-26.8c-6.9-1.1-3.5,2.8-4.4,6.4-1.7,6.8-2.3,13.6-3,20.4h-20.2c-1.4-.6-2.4-1.3-2.9-2.2-3.9-7.5,11.8-5.7,8.7-20.7-2.7-13.3-12.4-.2-21.1-1.8-10.2-1.9-26.8-16.3-33.3-17.2-2.4-.3-37.3,3.5-38.7,4.7-2,1.8,3.4,12.4,2.5,16.3-3.8,15.6-25.5-6.4-28.6-3.4,2.9,12.5-8.4,6.5-18.6,8-16.7,2.6-31.3,7.3-49.4,5.1,0-6.2-19-35.2-25-31.2-3.2,13.7-17,24-14.6,38.9l-18.8-15.6c-2.9,0,.4,15.2-5.8,15.5-5.9.3-1.1-10.4-1.9-13.5-2.5-9.2-19.1-17.3-27.2-22.7-2.9,6.4,6,14.9,10.2,19.4-19.2,2.5-27.3-22.2-47.9-22.1,2.9,11.7-2.9,6.5-5.9,10.3-7.5,9.7,10.2,20.8,10.2,22.1,0,1.3-10.4,6.3-13.1,9-.3.3-.7.7-1,1h-22.1l-1.5-3.5,25.9-11.6C82.7,22.8,66.9,15,52.5,0h-5.8c-3.3,15.8-5.3,24.3,8.7,36.2-34.3-14.4-68.5,31.5-17.4,26-3.9,10.9-3,22.3-2.9,33.7-3.1,3.1-18.9-14.1-23.2-10.3-.4.3,0,5.7-2.8,9.1-16.7,20.8-20.6,5.2-32.8,6.9-5.8.8-26.5,11.7-28,17-2.6,9.4,28.4,40.4,34.7,48.6,4.3,5.5-1.7,11.7-4.5,11.7-10.7,0-30.9-52.4-36.4-62.1-22.4,10.5-22.7,57,0,66,7.8,3.1,31.5,3.2,40.6,1.4.9,5.6-5.6,7.9-7.4,12.8-7.5,20.8,13.8,35.2,12.9,39.9-2.5,12.5-30,11.1,3.2,32.7-37.2,10.2,3.7,26.2,7.4,36.1,3.2,8.6.4,19.6,1.3,28.7,5.9.2,11.9.3,17.8-1.1,7.4-1.8,3.7-11.3,17.1-4.1,2.1-2.3-4.3-26.5,4.3-23.3,4.2,1.6,6.9,3.6,8.6,5.9-.3,20.2-.6,41-1,62.3-8.9-3.7-17.6-7.7-26.4-11.2-.5,19.2,10.5,35.7,25.8,41.7-.2,7.4-.3,14.9-.5,22.5-7,7.5-28.2,47.3-25.3,49.8,8.3.5,16.4-.4,24-2.5-1.6,55.1-3.8,113.1-6.8,173.9-9.3,193.1-18.8,267.9-27.3,395.6-11.8,177.8-11.7,308.8-6.3,455.1-5.1,20.4-9.4,41.1-10.9,62.9-.9,13.4-.7,28.9,0,42.4,0,.9,0,2,.2,3.2,2.2,35,9.9,68,20.6,100.3,7.4,141.5,16.5,311.8,23.6,545.7,4.1,134.2,9.2,342.5,9.9,601.3,10.1-1.3,20.9-2.7,32.2-4.1v436.2h2419.1v-432.6c12.3.2,24.7.3,37.1.5-7.1-90.4-16.4-227.3-22.2-393.9-8.2-235.9-6-440,0-612.8,17.5-.4,34.7-.4,51.3.8,6.9-14.3-9.4-23.7-10.2-27.7-1.1-5.6.5-12.4,0-18.4l41.1-9.3c6.7,8.6,5.7,11.1,20.5,9.2,15.6-1.9,57.1-17.1,71.8-18.5,3.4-.3,6.9.4,10.3,0,2.5,0,5-.2,7.4-.3,32.3,0,126.8,8.5,100.6-27.7h0ZM2548.9,275.6c.9,6.9,15.7,38.5,4,40.5-1.6-.4-3-.9-4.3-1.3-1.4-36-2.9-72.5-4.7-109.6,27.2,10.8,6,32.9,4.6,52.6-.4,5.7-.3,12.3.4,18h0ZM2544.3,121.9c1.3,0,20.6,12.3,21.3,13.3,1.7,2.6-2.8,17.9-2.6,24.2.4,15.2,9.7,31.5,6,47.9-7.5,1.6-22-4.5-24.9-10.4-1-2,4.2-6.6,4.7-11.5,1.1-10.4-.3-22.6-7.3-30.3-.5-9.9-1-19.8-1.6-29.8,2.1-2.1,3.8-3.4,4.3-3.4h0ZM37.9,216.1c-1,31.3-24.7-1.2-17.3-19.2-3.5,0-4.7,5.7-8.7,4.1-2.7-1.1-19.5-15.5-19.8-18.9-2.3-22.6,22.4,5.7,27.1,9.6,8.8,7.5,19.3,5.5,18.7,24.3h0ZM2413.6,393.9c.8-.7,1.6-1.6,2.3-2.6.2,6.1.3,12.2.5,18.3-11.7,4.6-23.5,8.7-24.7,7.5-5-23.2,10.8-14.4,21.9-23.2ZM2387.4,419.7c2.1-.8,11.5,21.6,29.8,18.6.2,6.3.3,12.5.5,18.7-1.1-1.7-2.4-3-4-3.8-6.8-3.7-11.9-1.2-17.3-2.8-4.9-1.4-4-8.1-6.2-7.4-12.1,4-12.8,32.6-30.5,33.7-1.4-10.8-9-19.3-14.6-28.5,24.4,1.1,34.7-9.4,42.2-28.5h0ZM2284.2,440.5c18.3-2.1,33.5-11.2,47.9-20.8,4.5-3,12.8-13.1,15.9-14.1,1.8-.6,31.3-1.2,32.1,5.1l-27.7,9c-11.2,2.8-15.8,16.7-23,20.9-7.2,4.2-22,5.7-29.9,12.5-5.6,2.4-18.1-9.3-15.3-12.6h0ZM1735,443c11.7,6.5,28,10.6,40.7,3.9,8.2-4.3-11.8-10.2-11.7-14.3l23.3,2.5c-7.6-10.1-6.3-12,7.2-15.6l10.2,23.4c-21.1-17.4-28.5,17.8-30.8,18.3-12.7,3.1-46.4.3-38.9-18.3h0ZM1657,437c.6-1.9,12.1-12.5,14.1-13.3,25.3-9.6,23.4,12.2,36.6,19.1,14.6,7.6,30.8-10.3,21.3,20.9-21.3-.9-38.2-13.2-58.8-18.9-5.8-1.6-16.4,2.5-13.3-7.8h0ZM1547.1,429.6c21.5-11.2,30.3-36.7,57.2-16.4-11.7,3.4-24.2,6.3-33.1,14.5-3.8,3.4-6,10.9-9.6,12.9-4.2,2.3-11.9,2.5-17.4,4.5-13.6,5.1-18.9,16.3-29.9-4.6,11.8-1.8,22.6-5.5,32.9-10.9ZM947.6,435.3c9.3,9.1,29.5,9.3,40.7,3.9,11.3-5.4-20.8-10.6-13.1-16.9,13.9,5.2,25.6,15.2,42.1,13-2.1-6.1-14.6-20.1-10.8-25.4.6-.9,7.3.4,5-4.4-1.6-3.3-13.2-6.4-15.9-11.7-3.1-6.1-.6-15-5.1-21.4l-16.8-17.4c7.7-.3,10.2,7.1,17.3,9.2,5.7,1.7,12,.3,17.5,2.5,1.2.5,20.9,13.3,21.8,14.2,10.8,12-1.2,13.6-5.1,21.4-5.6,11.2,5.9,26.8,9.5,38.2-19.6-7.7-28.1,10.7-29.1,25.9-17.1-21.8-62-1.1-58.1-31.1h0ZM887.4,412.3c17.6,2.4,34.3,38,54.3,20.4-.8,11.3,5.6,25-12.3,22.8-5.6-.7-35.9-13.2-39.8-16.5-6.7-5.5-18-28.9-2.1-26.7h0ZM831.4,413.6c22.5,15.8,5.4,15.6-2.7,23.3-8.7,8.2-10.2,27.8-25,34.7l-16-31c13.9,1.3,29.5-4.6,35.6-16.2,3-5.8-.3-16.5,8.1-10.7h0ZM726.7,432.7c8.9-1.4,17.2-3.6,25.2-7.3,24.1-11,39.2-39.1,70.6-22.5l-29.5,9.9c-15.5,13.6-17.3,16.5-36.5,24.5-7.8,3.3-16.7,13.4-26.3,5-1.7-1.5-4.7-8.4-3.7-9.6h0ZM2483.4,3272.5H95.7v-424.2c24.2-2.9,50.9-5.9,79.8-8.7v-99.4c14.6-102.1,31-262.8,21.4-461.3-6.9-142.8-22.5-207.9-31-352.2-8.1-137.8-4.1-253.7,2.3-343.8,18.3-13.1,57.9-3.5,81.1,2.9,17.2,5.3,36.8,14.1,53.9,18.2,4.6,12.6,31.1,44.5,40.9,51,14.5,9.7,55.1,19.5,69,27.6,1.3.8,9.5,11.4,18.1,18.3,1.3,8.1,7.1,21.4,18.2,18.9,24.8-5.6-5.1-76.3-18.2-91.5-25.7-32.9-54.3-64.3-80.8-96.8-15.1-18.5-23-29.4-40.4-48.4-4.2-4.6-19.6-20-20.2-21.3-4.3-10.7,10.5-8.4,11.6-10.6,2.4-4.8-2.4-8.4,1.8-16.5,21-11.5,25.5-21.6,13.5-30.3,3.7-3.9,25.6-22.9,33.7-30.3,19.1-17.5,40.9-28.9,60.6-42.4l6.7,6.1c.9-1.6-.9-4.5,0-6.1,2.8-1.8,4.7-4.8,6.7-6.1h-6.7c3.2-6,5.8-10.1,13.5-12.1h6.7c2.2-2.1,4.6-4,6.7-6.1,22-20.9,67.6-48.3,101-60.5,4.4,2.7,8.9.7,13.5-6.1,3.6-.9,9.2.6,13.5,0v-24.2c-18-8.1-44.3-7.7-60.6-12.1-33.1-9-36.7-14.3-80.8-18.2h-3.3c1.1,0,2.2,0,3.3,0-69.2-18.7-151.9-23-222.3-6.1-3.8.2-7.5.7-11.2,1.4.4-12.4.8-25.1,1.2-38.2,17.1-18,46.3-52.4,57.4-57.5,9.6-4.4,31.9,14.8,56.9,9.9,7.2-1.4,1-15.2,4.1-17.8,3.8-3.1,17.4,1.8,24.8-2.1,5.9-3.1-.4-11.7,21.8-16.8,20,14,35.6-15.7,27.5-18.8,26.5-1.3,48.7-5.2,66.8-11.4,16.6-7.9,44.2-14.1,83-18.8l-2.2-5.4c-25.9-8.8-18.4-17.9-33.9-27-13.6-8-34-6.1-46.7-12.6-11.3-5.8-11.1-21.9-26.7-24.6-16.6-3-23.8,8.7-37.9,9.4-12.9.7-63.7-6-70.3-3.1-8.7,3.8-11.5,18.6-20.6,24.2-14.7,9.1-65.9,13.2-66.8,18.7-.8,4.7,7.9,19.1,7.3,30.2-1,18.1-20.3,32.5-42.8,46.8,1.8-120.2.8-263.5-4.4-435.1,4.2,3.2,11.4,3.3,20.3-2.5,7.4-4.7,6.6-13.6,22.1-10.1-7.8-16.2-2.2-29.8-2.9-46.6-16.9,15-19.4-4-40.7,1.2-.2,0-.4.1-.6.2-1.8-51.5-3.9-105.5-6.4-162,3.7,3.5,7.4,7.2,12.2,9.6,3.4,1.7,28.9,11.6,26.9,1.9-16.5-21.4-21.8-44.4-41.5-62.9-.3-5.4-.5-10.8-.8-16.3,2.3,2.3,4.4,4.2,6.3,5,10.3,4.7,17.7,1.1,25.3,3.3,3.5,1,9,10.5,13.4,14,5,4.1,18.7,6.2,17.8,17.8,0,1.1-14,7.5-13.4,17.2.4,6.2,14.4,32.1,13.1,33.5-25.7-14.6-32,17.3-29.2,35.1,2.1,13.3,20.4,14.6,23,23.7,1.3,4.5-8.6,18.3-4.8,32.6,3.2,12,15.2,10.6,16.6,12.4,2.2,2.7-3.2,18.1-11.5,14.2-6.2-2.9-24.8-24.5-32-31.2-2.2-2-3.8-11.5-8.8-4.9-17.2,22.8,17,67.3,49.5,40-10.2,22.7,12.4,41.3,36.5,44,8,.9,4.2-13.9,2.9-18.2-7.1-22.8-40.3-19.7-30.6-41.4,5.8,3,6,8.9,13.4,12.6,6.7,3.3,15.8,2.7,21.3,6.9,5.4,4.1,19.2,34.9,24.8,34.9,25-22.5,58.3-64,45.2-97.2-7.7-19.6-43.9-35.3-33.5-55.5,1.3-2.5,21.3-22.8,24.6-20.7,4,7.7,1.6,16.7,3.6,24,11.2,40.6,53.2,59.4,98.1,53.8-3.3,13.8-15.4,18.6-26.1,27.2,0,4.1,25,7.8,27.7,11.5,2.6,3.6.6,12,2.9,18.2,5.1,13.6,33,30.5,49.2,31.3,27.3,1.4,22.5-8.5,35.6-12.5,10.8-3.3,18.6,3,12.7,10.6-2.5,3.2-10.4,3.8-14.9,8.2-14.3,13.9,1.7,48.8,3,66.1,20.5-7.5,32.7-26.8,29.1-46.6,7.5,2,4.6,10.3,7.4,15.4,4,7.5,16.2,9,24.5,10.5,2.4-8,5.2-18.5,2.4-26.7-3.4-9.9-14.6-3.4,3.5-19.9-17.1-.9-27.5-10-41.1-16.7-2.8-1.4-8-1.3-8.3-1.5-.6-.6,2.6-14.8,3-15.5.5-.9,15.3,1.3,23.3-1.2,5.5-1.7,27.2-18.1,28.9-16.9,1.9,8.6,5.1,17.6,13.1,23.3l82.9-113.9c4.9-.7,3.1,6.2,2.8,9-2,19.4-13.9,32.8-26.1,48l20.3-2.5c-3.9,21.6,11.3,48.2,32,22,12.2-15.5,8.3-23.6,2.9-40.2,9,6.7,12.3,18.8,23.4,24.4,5.4,2.7,34.6,9.3,37.6,6.7v-13c18.3,6.3,24.9-9.2,26.2-23.3l11.5,14.3c3.2,2.3,12.5,7,15.9,6.1,3.3-.8,3.5-5.7,5.1-6.8.7-.5,5.3,1.1,9.1-.9,9-4.8,14.7-13.5,13.6-23.1,11.8,3.4,19.5,7.4,32.8,4.6,10.9-2.3,16.2-14.8,25.3-20.1,3.7,40.6,35.8,22.6,61.2,29.6,3.8,1,20.5,14.4,21.8,17,1.1,2.1-18.1,24.3-.3,38.9,9.7,8,23.1,2.2,3,20.1-12.2-.8-34.7-38.2-40.7-38.3-7.4-.1-9.5,44,15.2,48.7,10.1,1.9,20.5-1.6,29.8-4.7.5,5.4-.9,11.4.2,16.7,3.3,16,56.2,42.9,39,4.1-10.6-24-38.2-15.8-30.4-38.9,6.3,4.1,8.1,9.5,15.8,13.1,6.4,3,18.3,3.6,21.2,5.7,5.4,3.8,14.2,33.3,25.5,33.2,9.4,0,40.2-50,43.5-59.8,7.4-21.9,2.2-35.4-13.1-53-12-13.8-28.7-16.3-17.6-39.1,1.6-3.3,19.8-22.8,23.5-19.2-5.1,48.4,45.4,89.6,98.8,75.1l-3.3,11.3-19.9,18.5c3.3,6.6,24.8,8.2,25.9,9.3,1,1-.1,12.8,1.6,18,6.8,20.7,45.6,38.3,69.2,32.9,8.6-2,13.8-11.8,15.9-12.3,10.7-2.5,20.9-.3,13.9,10.4-1.7,2.6-11.8,6.5-15.9,11.7-13.3,16.4,4.6,44,2.9,63.5,5.5,5,23.4-16.1,25.6-19.9,5-8.7,7.5-16.8,6.4-26.7,5,1.2,2.6,9.6,5.1,14.9,8,17.1,37.6,9.4,28.5-15-1.5-4.2-7.4-7.1-7.5-11.5,0-2.5,10.2-1.9,8.8-7.8-.9-3.6-19.7-6.1-25.3-8.6-6.9-3.1-11.7-10.2-20.7-11.3-4.7-20.3,10.5-12.9,24.9-17.2,8.7-2.5,17.8-11.5,25.5-16.1l14.5,23.2c27.6-22.4,41.3-54,60-81.1,7-10.1,21.4-18.3,22.8-32.8,6,2,2.7,16.5,1.6,20.9-3.6,14.4-16,23.3-21.9,36.1l20.3-2.5c-8.8,11.4,4.1,40.9,20.4,29.9,10.3-7,17.6-16.8,17.6-28.7,0-6-8.4-17.4-1.7-19.4,1-.3,6.8,13.5,10.1,16.9,11,11.2,33.4,15.3,49.4,14.2v-15.6c17.1,12.3,26.5-12.4,23.3-25.9l10.1,18.2c3.3,2.1,17.7,9.8,20.5,5.2,2.3-3.7,5.5-40.1,7.2-41.6,8-6.9,18.7,13.2,26.9,16.2,23.3,8.4,36.8-5.5,51.5-18.8-6.7,39.5,50.7,20.9,59.7,36.3,3.9,6.7-20.9,45.8,15.8,46.6-7.9,13.8-6.5,20.2-21.9,7.8-9.3-7.5-21.4-21.6-27.6-31.2-7.1-2.8-5.1,5.2-7.2,5.2-11.1.4-21.8-33.6-27.7-41.5-6,.9-3.6,10.9-10.6,12.7-8.4,2.2-16.9-6.9-30.1,4.1-5.4,4.5-29,48.2-26.1,50.6,18.8,1.9,35.5-4.7,49.3-15.5-5.9,43.5,38.7,27.8,29.1-2.6,20.8-3.2,12.1,5.1,18,18.9,13.3,30.8,46.8,10.3,48.8,12.2-8.5,25,15.6,39,40.7,41.4,2.4-17.8-1.7-25.1-16-36.3-9.9-7.7-24.6-6-15.9-23.3,6.2,2.7,7,9.3,13.4,12.7,6.6,3.5,15.1,2.5,21.3,6.9,6.6,4.7,20.6,34.7,24.8,34.8,27.6-23.8,61.3-68,42.7-102.8-17.9-33.5-55.9-24.3-13-67.4,1.2-1.2,1.9-7.1,6.6-3.3,3.3,2.7,2.3,19,3.6,24,10.4,39.7,54.5,59.5,98.1,53.8-3.3,13.9-15.4,18.6-26.1,27.2,0,4.5,24.1,6.2,27.6,11.6,2.4,3.7,1.3,11.6,3.6,17.5,7.9,20.2,44.3,37.2,67.7,30.6,4.6-1.3,26.8-22.4,31.8-7.9,3.4,10-20.5,11-23.1,26.1-.9,5.4,6.3,53.6,8.6,55.5,5.1,4.3,21.4-15,23.8-18.9,5.9-9.6,6-16.9,5.2-27.7,9.4,4.6,2.8,17.3,14.6,22,20.4,8.1,22.4-5.9,20.1-20.5-1.6-10.4-11-10.7,3-22.1-12.3-1.6-38.8-11.5-46.6-19.6-2.2-2.2-.5-13.3.3-14,.8-.8,17,.3,23.2-1.3,5.5-1.5,27-18.2,28.9-17l13.1,23.3c4.1,0,35.6-42.6,40.5-49.4,10.6-14.8,19.6-28.8,30.3-42.9,4.6-6.1,9.9-14.5,12.1-21.6,4.9-.7,3.1,6.2,2.8,9-2,19.4-14,32.9-26.1,48l20.3-2.6c-2.2,9,1.5,31.2,13.5,33.3,10.8,1.8,27-20.3,27.4-29.5.4-9.5-10.2-15.8-1.6-22,5.6,18.1,23.2,29.3,44,30.9,15.5,1.2,16.6-1.7,15.6-15.3,5.3-1,.1,7.3,7.1,5.1,11.6-3.7,17.6-18,16.1-28.4,5.7,3.5,3.4,9.9,10.1,15.6,2.2,1.9,11.3,6.3,17.1,7.7,1.1,48,1.9,94.5,2.5,139.5-9.1,65.2-95.3,30.4-110.7,69.4-17.6,44.8,32.8,25.2,49.4,57.9-47.8-.7-57.3-10.2-51.3,37.1-49.6-7.8-100-4.4-148.6,9.2l25.5,18.4c3.4,7.1,23.4,7.2,20.5,13.8-13,29.8-55.2,13.5,0,73.8-15,18.6-42.1,16.1-61.5,23.2-6.9,2.5-19.5-.9-25.9,8.6-29.9,44.5,15.2,48.2,46.4,65.3,9.8,5.3,38.2,18.3,39.5,20.1,14.2,19.6-20.2,27.3,22.1,35.4,7.1,41.1-9.6,46.9,41,64.6,19.2,6.7,60.5,9.3,67.3,17.9,4.7,6-8.2,50.7-5.4,59.5,3.5,11.1,24.9-.6,20.1,14.8-9-1-14.1,5.3-20.4,9.3-28.8,18.3-21,26.6-36.4,36.4-21.9,13.9-57.8,1.9-76.2,23.6,7.9,10.4,20,15.8,30.6,23.1,13.2,9.1,21,19,41,18.5-4.5,32.2,51.2,59.9,41,83.1-60-14.2-150.8-28.9-161.9,43.5-.4,2.8,14.7,52.3,17.3,53.8,30,16.9,123.6-19.1,124,41.2,0,.9-9.8,3.4-10.2,8.3,26.3,9.6,43.1,21.1,71.7,28.6.2,0,.4.1.6.2,2.8,1.4,7.2,7.3,15.4,8.5,2.1.3,4.4.6,6.7.8-.7,7.9-1.5,15.7-2.2,23.3-1.8,18.3-4.4,43.8-7.3,75.7-1,.7-1.9,1.5-2.8,2.3-73.3,14.9-193.5,64.7-30.8,64.7l-41,36.7c31.3-2.9,43.2,18.7,64.9,26.2-9.4,156.6-14.5,380.9,7.3,645.4,8.8,106,19.7,192.5,27.4,247.8-1-.2-1.9-.5-2.9-.7.2,1.1.4,2.3.4,3.5,1.7,1.5,3.2,3,4.5,4.5,4.4,5.1,6.3,10.2,7.4,15.9l-.2-1.5c1.9,12.3,5.5,24.2,10.5,35.7,8.4,16.4,19.3,31.6,31.4,46,2.9,3.3,5.9,6.6,9,9.9,4.9,0,9.9.1,14.8.2v418.8h0ZM195.4,609.6c1-.2,1.8-.4,2.4-.7-.9,1-1.7,2-2.3,3.1,0-.8,0-1.6,0-2.3Z"/>
</svg>