<?xml version="1.0" encoding="UTF-8"?>
<svg id="Layer_1" data-name="Layer 1" xmlns="http://www.w3.org/2000/svg" viewBox="0 0 2947.67 3174.29">
  <defs>
    <style>
      .cls-1 {
        fill: #242424;
      }
    </style>
  </defs>
  <path class="cls-1" d="M2774.59,146.96c-5.05,19.5-29.58,40.19-30.06,59.34-.37,14.89,12.56,36.79-14.72,35.76.07,4.17,6.1,4.4,7.76,6.57,2.82,3.67,3.18,8.83,6.59,12.2,13.62,13.43,32.74,21.39,42.02,41.68,7.49,3.79,2.62-18.08,5.66-23.19,2.42-4.08,9.52,1.78,15.91-1.15.95-.44,14.23-14.11,14.45-15.13.84-3.92,1.03-24.2.11-27.62-1.64-6.12-18.19-12.11-26.23-9.46-5.41,1.78-10.73,14.39-14.25,10.28-1.67-1.95,7.3-13.93,8.81-18.53,6.65-20.21-3.36-53.42-16.06-70.76Z"/>
  <path class="cls-1" d="M61.72,204.59c-3.31.22-58.96,23.21-61,25.81-5.22,6.67,19.44,20.45,24.57,21.8,12.5,3.29,25.46,1.47,37.65-1.51-2.75,6.98-11.73,6.03-17.28,10.11-8.05,5.93-12.8,22.81-5.1,29.48,7.39,6.4,25.9,1.68,32.77-4.86,3.12-2.97,3.73-8.54,4.13-8.83,1.82-1.33,14.71,11.62,17.26,8.63-3.38-23.88,13.64-43.07,14.43-66.25-21.96,18.81-26.84-15.76-47.43-14.39Z"/>
  <path class="cls-1" d="M1098.73,607.89c6.04-13.38-7.7-23.61,15.93-20.14,1.69-9.88-7.92-13.11-12.15-20.99-2.56-4.76-12.12-36.18-19.56-30.84-.48.34-.92,7.73-5.81,10.23-5.83,2.99-11.52-1.3-17.54-.4-19.69,2.94-31.85,46.12-40.27,62.16,20.79,2.3,38.97-4.09,51.98-20.14-.66,7.53-4.83,12.73-2.32,20.99,5.41,17.77,23.21,13.6,29.75-.86Z"/>
  <path class="cls-1" d="M1935.22,645.39c-15,14.02-13.99,3.14-25.17.53-19.69-4.58-42.33,20.21-55.65,32.6,11.76,10.61,28.92,6.48,43.28,7.23-5.74,8.6-7.77,15.94-2.47,25.48,6.71,1.33,15.07.96,20.96-2.75,11.19-7.05-.23-17.77,21.95-11.26-7.73-17.98-2.17-33.13-2.91-51.84Z"/>
  <path class="cls-1" d="M1128.95,646.66c-4.08,1.33-36.69,26.49-37.27,29.19,2.54,16.57,35.56,6.6,40.33,9.9-3.15,4.11-4.19,24.63-2.89,25.91,1.14,1.13,16.54.1,20.18-1.5,13.34-5.86.69-23.18,23.14-10.03l-2.88-51.85c-15.95,7.71-24.05-7.01-40.6-1.62Z"/>
  <path class="cls-1" d="M2943.16,1952.79c-9.77-15.09-35.57-14.1-46.24-20.24-7.91-4.55-68.62-47.93-71.41-51.35-17.57-21.55-34.22-66.18-51-92.43,26.44-7.94,84.9,7.7,112.21,0,37.6-10.61,12.5-40.07-20.4-51.35-50.88-17.45-162.02,1.5-148.62-62.17,4.02-19.08,82.23-45.24,36.4-61.07-28.36-1.58-55.36-4.06-81.03-7.45.82-14.38,1.6-28.33,2.35-41.85,2.04-1.04,4.07-1.76,6.03-1.98.54-.02.98-.05,1.24-.08,53.64-5.16,84.75-32.25,153.02-41.08,15.93-2.06,34.82,3.98,51.17-4.96l-10.28-25.72,61.05-20.8c-13.9-30.17-59.59-32.39-81.53-40.95-67.07-26.14-66.76-27.04-122.42-71.89-10.75-8.67-45.45-13.81-40.75-35.79,5.35-25.05,81.64-13.31,101.9-15.62,7.07-27.45-33.13-32.44-50.87-41.16l30.33-25.54c-62.35-26.83,13.48-28.48-30.38-61.67l40.78-15.36c6.8.03,13.6,0,20.4,0,11.5,1.31,38.9,5.67,30.51-15.26-4.99-12.44-80.12-64.35-101.92-87.44-7.06-7.48-19.66-9.48-20.23-10.47-13.19-22.95,29.61-26.92,50.83-30.61,7.49-1.3,37.69,6.26,51.01-.1.88-23.51-26.57-7.52-30.92-15.47-22.03-40.21,21.97-48.26,20.68-51.14-4.69-7.75-14.62-10.31-20.36-15.45-29.59-26.47-63-28.08-89.81-35.95.05-13.31.09-26.72.1-40.25l59.21-6.07-10.4-30.64,51.05-15.42-100.16-57.19c-.44-65.53-1.35-133.34-2.81-203.39h14.81c1.79-10.25-6.02-21.27-15.41-27.98-.36-15.88-.75-31.88-1.17-47.98,8.3-3.65,15.99-6.83,16.58-7.64,4.55-6.3-15.54-12.29-17.36-21.33-.03-1.14-.06-2.28-.09-3.42.73-8.24,6.64-23.25,13.16-24.35,22.26-3.79,18.64,40.85,18.77,54.9l14.39-11.52c-2.98,18.69,26.65,26.05,29.05,7.36,2.78-21.68-1.58-26.41-17.46-39.03,21.92,8.76,40.73-7.61,48.38-27.44-.35-4.22-38.53-25.46-44.73-26.71-17.72-3.57-18.62,8.08-25.31,8.14-19.38.15-2.22-25.81-1.57-33.61.66-7.89-3.03-13.73-2.69-19.66.34-5.68,6.58-15.69,7.82-23.94,2.96-19.76,1.14-34.54-12.14-49.78-4.53-5.2-13.99-6.45-13.09-14.29,6.87,4.81,22.29-12.52,24.5-17.34,5.73-12.47.08-37.05-5.06-49.61-2.4-5.87-8.06-10.19-10.01-15.95-4.12-12.22-5.84-33.34-9.43-46.75,11.26-.73,22.06,4.49,33.43,3.14,6.34-.76,3.16-7.1,5.55-6.03,2.94,1.32,4.39,7.54,10.11,5.74-4.64-25.05,11.36-8.85,23.16-15.8,16.56-9.73-2.82-34.61-16.62-38.21-10.5-2.73-28.5,3.15-29.62,2.16-3.75-3.32,9.25-9.23,10.91-16.46,2.4-10.47.6-22.38-2.29-32.5-4.95-1.26-5.78,2.02-8.67,4.28-7.8,6.08-26.55,21.7-31.34,29.25-1.32,2.08-11.46,21.69-11.74,22.95-1.33,6.15,8.32,5.51,8.6,8.59.27,2.99-4.36,12.98-7.4,15.58.09-7.23-6-10.62-12.93-11.39-.28-5.46-.56-10.92-.85-16.4h-56.29c-.68-5.51-1.71-11.3-5.27-12.16-2.17-.52-6.74,2.62-10.71,1.99-3.92-.63-7.81-5.54-11.76-4.84-3.52.63-9.75,8.91-15.26,15.01h-17.01c2.43-7.15,7.83-16.59,7.12-19.53-5.7-7.83-19.1-5.35-26.91-1.28-15.03,7.81-12.73,34-26.35-.36l-12.98,14.37c-.22-5.71-12.43-34.44-15.93-34.49-10.3,3.3-13.82,25.43-16.54,28.1-.91.9-22.6,9.1-23.88,9.35-9.74,1.9-1.84-17.84-1.63-22.08.23-4.78-.13-6.82-4.26-9.67-2.54-.49-14.77,6.24-17.39,8.53-2.47,2.15-5.21,11.76-7.06,8.74-1.03-1.71,2.36-6.73-4.38-5.84-6.83.9-12.08,11.71-20.18,11.65l4.31-23.04c-10.89-3.59-20.68-3.98-31.96-1.63-25.28,5.25-28.84,25.25-45.97,37.18h-9.17l-2.49-26.93c-5.23-6.09-18.07,20.02-19.54,22.16-1.77,2.57.46,5.31-6.44,3.76,2.51-21.71-17.74-35.37-23.16-54.74-14.23,14.93-27.01,34.49-26.11,55.75h-.49l-7.47-23.19-22.22-32.55c-11.19,17.72-25.05,35.34-30.71,55.74h-13.82c-5.36-10.64-10.82-22.29-16.12-21.16-5.1,1.07-4.37,11.24-4.35,21.16h-25.66c.1-.17.18-.34.29-.52.67-1.07,6.23-1.22,7.58-5.15,1.8-5.22-.14-12.7.41-18.38-7.67-1.77-14.47,6.83-21.28,5.89-1.71-.23-1.44-4.6-4.03-5.67-3.78-1.56-8.43-.65-13.34-3.44-10.99-6.25-19.19-18.59-17.71-31.39-5.19.21-19.72,16.84-24.7,21.53-2.75,2.6-8.2,2.83-10.62,5.19-4.49,4.4-8.12,25.42-15.45,17.55-2.97-3.2-10.34-9.59-10.74-10.26-2.02-3.41,1.16-10.91-2.06-10.98-22-.48-34.66,31.65-56.29,31.72l14.43-28.77c-3.77-3.71-24.22,20.29-28.84,17.24l-15.94-22.97c-4.57-.03-17.15,26.15-18.9,38.41h-5.05l-13.59-12.57-4.19,12.57h-4.16c-.93-4.58,2-8.99-2.15-16.49-2.85-5.13-29.32-27.15-25.6-14.83,1.02,3.38,11.48,13.3,8.61,15.89-17.92.1-23.84-19.99-41.86-23.08-9.11-1.56-.6,7.47-1.45,8.63-.49.68-14.88,6.05-15.72,6-.96-.05-5.44-8.89-8.7-11.85-3.63-3.3-23.61-19.99-26.13-20.05-6.54,6.9,2.68,33.34,1.44,34.57-.71.71-18.09,3.74-19.9,2.58-1.31-.83-6.64-20.68-13.35-22.66-7.81,3.69-14.43,25.92-16.57,28.08-.81.83-20.33,8.81-21.49,8.91-12.42,1.14-.76-23.41-3.85-31.27-12.5-1.06-19.51,9.74-27.45,17.26-4.31-14.75-17.67,6.38-27.41,8.65-5.36-6.89,26.26-35.06-21.45-28.54-28.47,3.89-31.51,26.08-49.85,38.2h-9.55c.21-59.73-19.92-1.18-24.64-1.07-8.26-19.06-15.42-39.32-30.3-54.68-2.17,11.78-14.48,18.76-18.04,29.58-2.84,8.61-1.32,13.3-2.23,20.87-.63,5.27,1.01,4.67-5.76,4.3,1.24-21.74-16.85-37.6-27.46-54.7-6.6,12.87-18.49,26.56-24.18,39.21-2.58,5.73-3.71,11.2-4.89,16.49h-14.18c-12.46-22.42-21.37-31.02-22.12,0h-25.02c2.2-2.46,8.09-3.87,9.83-9.58,1.01-3.33-.35-13.3-1.91-14.4-5.9-4.17-17.61,8.58-18.67,8.52-2.07-.12-3.06-6.52-5.08-7.81-2.65-1.69-7.68-.52-10.56-2.35-15.55-9.9-13.77-15.91-37.79-9.95l-2.9-28.83h-5.78c-19.09,17.43-34.57,31.99-47.68,54.73-3.87-5,2.85-12.65,1.69-18.32-1.15-5.69-17.83.87-8.92-16.22-14.54-3.86-41.77,28.86-47.64,28.89-16.36.09,3.39-18.69,0-26.01-2.76,2.02-12.78,11-14.49,11.01-3.08,0-6.31-9.47-10.11-6.75-6.73,11.57-14.15,23.71-16.66,37.07h-5.87c-4.16-5.46-7.07-12.68-14.99-12.52l-.04,12.52h-4.43c-2.58-5.11-1.88-11.92-5.78-18.18-3.24-5.21-26.56-22.78-24.42-15.98l12.99,24.49c-15.56-9.32-28.11-24.27-46.2-28.85,1.14,8.36-9.77,9.58-10.42,15.91-.84,8.09,10.14,13.97,11.83,21.57-35.74,3.54-12.25-4.45-11.57-7.29,2.73-11.27-29.26-41.03-39.01-47.41-11.33,16.44,7.9,40.25-21.65,37.46l-1.44-11.53c-5.11,3.88-8.61,12.16-15.89,11.5,2.64-5.27-9.82-31.58-13.02-31.63-10.84,3.36-14.41,25.92-16.4,28.23-.98,1.14-24.38,7.94-28.37,9.16,9.98-62.37-21.43-14.47-24.55-14.47-.87,0-4.4-6.1-8.31-5.47-1.76.28-17.91,15.82-19.13,14.19,11.58-38.17-14.36-35.97-40.28-21.41-16.69,9.37-21.39,29.31-40.62,35.82l-2.94-31.68c-5.96-7.15-21.04,28.36-25.96,28.8,1.67-11.93-4.89-21.7-10.08-31.76-2.4-4.67-13.68-26.49-18.79-22.97-1.25.87-12.75,22.52-15.92,25.93l-7.21,25.9c.23-21.57-19.17-35.68-26.04-54.73h-2.89c-10.55,20.81-28.26,40.59-31.34,64.4h-6.07l-21.86-29.8c-6.86-1.28-3.46,3.1-4.35,7.07-1.71,7.62-2.27,15.16-3,22.73h-20.07c-1.37-.68-2.4-1.46-2.86-2.47-3.84-8.36,11.73-6.32,8.7-22.99-2.7-14.84-12.34-.27-20.94-2.03-10.12-2.07-26.69-18.14-33.15-19.1-2.35-.34-37.07,3.87-38.43,5.25-2.03,2.05,3.4,13.83,2.45,18.14-3.83,17.31-25.38-7.12-28.43-3.75,2.84,13.92-8.36,7.17-18.5,8.95-16.59,2.9-31.15,8.17-49.09,5.64,0-6.94-18.86-39.11-24.84-34.74-3.2,15.23-16.95,26.71-14.52,43.21l-18.72-17.32c-2.88-.06.41,16.93-5.81,17.26-5.91.32-1.07-11.59-1.9-15-2.47-10.19-19.01-19.21-27.01-25.26-2.93,7.07,6.01,16.54,10.12,21.6-19.09,2.75-27.13-24.73-47.64-24.53,2.85,13.04-2.91,7.18-5.85,11.43-7.43,10.75,10.14,23.19,10.11,24.61-.03,1.45-10.37,7.05-13.07,9.97-.34.37-.66.74-.98,1.13h-22l-1.46-3.85,25.71-12.95c-7.32-22.37-22.97-30.96-37.27-47.6h-5.78c-3.26,17.54-5.27,26.98,8.67,40.31-34.08-16.06-68.07,35.03-17.35,28.86-3.91,12.16-2.97,24.79-2.89,37.42-3.04,3.41-18.77-15.65-23.07-11.51-.38.36-.04,6.3-2.8,10.12-16.6,23.08-20.49,5.84-32.65,7.63-5.75.85-26.36,12.96-27.84,18.87-2.61,10.48,28.23,44.94,34.54,54.05,4.28,6.16-1.69,12.98-4.51,13-10.63.1-30.69-58.28-36.15-69.09-22.25,11.7-22.6,63.43.09,73.41,7.77,3.43,31.34,3.51,40.38,1.51.86,6.23-5.6,8.84-7.36,14.23-7.5,23.08,13.76,39.12,12.83,44.39-2.46,13.94-29.78,12.34,3.21,36.4-36.98,11.4,3.72,29.1,7.41,40.2,3.19,9.6.38,21.84,1.25,31.89,5.91.18,11.88.36,17.67-1.26,7.39-2.05,3.66-12.53,16.99-4.52,2.07-2.53-4.27-29.5,4.32-25.9,4.17,1.74,6.87,3.97,8.57,6.53-.25,22.46-.57,45.57-.98,69.29-8.82-4.13-17.53-8.53-26.3-12.46-.54,21.36,10.4,39.75,25.67,46.36-.16,8.26-.34,16.59-.52,24.98-7,8.34-28.07,52.64-25.17,55.41,8.26.51,16.31-.46,23.89-2.79-1.63,61.25-3.82,125.81-6.72,193.33-9.23,214.78-18.69,297.93-27.13,439.88-11.77,197.73-11.68,343.43-6.23,506.11-5.03,22.67-9.32,45.72-10.84,69.99-.92,14.88-.71,32.15,0,47.11,0,.98.08,2.18.21,3.57,2.2,38.89,9.81,75.67,20.48,111.5,7.35,157.31,16.39,346.77,23.51,606.8,4.08,149.21,9.16,380.92,9.84,668.67,34.9-5.2,77.62-11.01,127-16.47v-110.53c14.55-113.49,30.84-292.23,21.32-512.99-6.84-158.77-22.38-231.22-30.81-391.64-8.05-153.28-4.11-282.13,2.27-382.38,18.24-14.61,57.53-3.92,80.68,3.28,17.08,5.95,36.59,15.67,53.57,20.19,4.54,14.04,30.97,49.44,40.68,56.7,14.44,10.79,54.83,21.72,68.61,30.66,1.29.83,9.49,12.67,17.96,20.32,1.33,8.99,7.05,23.83,18.1,21.02,24.68-6.26-5.09-84.89-18.1-101.78-25.59-36.58-54-71.54-80.37-107.68-15-20.58-22.88-32.68-40.18-53.84-4.16-5.1-19.51-22.21-20.04-23.68-4.27-11.88,10.44-9.37,11.54-11.83,2.41-5.38-2.35-9.37,1.8-18.34,20.92-12.75,25.39-23.96,13.4-33.65,3.67-4.3,25.48-25.46,33.48-33.65,19.01-19.45,40.63-32.09,60.28-47.11l6.69,6.73c.94-1.73-.92-4.98,0-6.73,2.77-1.99,4.66-5.35,6.7-6.73h-6.7c3.18-6.69,5.82-11.2,13.4-13.46h6.69c2.16-2.3,4.53-4.42,6.7-6.73,21.89-23.28,67.18-53.68,100.46-67.3,4.36,3.02,8.82.78,13.39-6.73,3.6-1.01,9.17.68,13.4,0v-26.92c-17.85-9-44.09-8.54-60.28-13.46-32.9-9.99-36.45-15.95-80.36-20.19h-3.25c1.09-.05,2.18-.1,3.25,0-68.81-20.8-151.01-25.58-221.01-6.73-3.75.27-7.47.82-11.17,1.52.42-13.82.8-27.96,1.16-42.44,16.98-20.01,46.05-58.27,57.05-63.9,9.53-4.89,31.75,16.45,56.58,11.04,7.13-1.55.99-16.96,4.09-19.82,3.78-3.47,17.32,1.97,24.66-2.32,5.83-3.4-.42-13.03,21.67-18.68,19.84,15.6,35.37-17.47,27.36-20.94,26.31-1.5,48.44-5.74,66.4-12.71,16.47-8.74,43.98-15.7,82.54-20.89l-2.18-6.03c-25.71-9.73-18.33-19.88-33.75-30.03-13.49-8.88-33.81-6.75-46.49-13.97-11.21-6.4-11.05-24.33-26.52-27.4-16.51-3.28-23.71,9.62-37.66,10.43-12.79.75-63.36-6.7-69.93-3.42-8.61,4.28-11.48,20.67-20.52,26.89-14.65,10.1-65.57,14.74-66.45,20.79-.76,5.27,7.88,21.21,7.27,33.54-.98,20.09-20.15,36.12-42.53,52.05,1.8-133.71.8-293.04-4.34-483.83,4.18,3.52,11.29,3.62,20.17-2.73,7.33-5.23,6.59-15.15,22-11.2-7.74-17.99-2.18-33.13-2.92-51.85-16.83,16.66-19.25-4.41-40.51,1.36-.18.05-.38.12-.6.21-1.76-57.3-3.88-117.29-6.4-180.11,3.71,3.92,7.34,7.97,12.16,10.7,3.39,1.91,28.72,12.89,26.77,2.14-16.41-23.77-21.67-49.42-41.29-69.94-.26-6.02-.52-12.06-.78-18.12,2.27,2.57,4.41,4.67,6.26,5.61,10.29,5.2,17.58,1.25,25.18,3.71,3.48,1.12,8.95,11.62,13.3,15.61,4.97,4.56,18.58,6.88,17.69,19.74-.08,1.21-13.96,8.35-13.29,19.17.43,6.87,14.34,35.71,13.07,37.22-25.53-16.24-31.79,19.24-29,39.05,2.09,14.82,20.28,16.23,22.88,26.39,1.29,5.04-8.55,20.39-4.78,36.23,3.18,13.33,15.09,11.8,16.54,13.79,2.15,2.96-3.16,20.1-11.46,15.74-6.18-3.24-24.66-27.27-31.79-34.74-2.16-2.26-3.8-12.83-8.74-5.49-17.07,25.36,16.92,74.87,49.24,44.45-10.11,25.19,12.33,45.97,36.25,48.92,7.94.98,4.2-15.43,2.87-20.2-7.07-25.31-40.03-21.95-30.39-45.99,5.8,3.33,6,9.93,13.35,14,6.63,3.67,15.67,3.03,21.21,7.66,5.4,4.51,19.11,38.86,24.64,38.77,24.88-25.01,57.96-71.21,44.92-108.13-7.69-21.77-43.68-39.24-33.3-61.77,1.25-2.72,21.17-25.39,24.46-23.07,3.95,8.52,1.6,18.57,3.6,26.68,11.14,45.15,52.88,66.07,97.56,59.77-3.3,15.4-15.31,20.68-25.94,30.22,0,4.54,24.84,8.72,27.52,12.83,2.61,4,.59,13.39,2.87,20.19,5.06,15.09,32.85,33.87,48.91,34.82,27.11,1.6,22.39-9.47,35.4-13.94,10.76-3.69,18.47,3.3,12.67,11.82-2.46,3.6-10.31,4.2-14.84,9.11-14.25,15.42,1.68,54.3,3,73.54,20.4-8.32,32.55-29.83,28.9-51.85,7.47,2.2,4.62,11.48,7.32,17.16,3.97,8.33,16.12,10.02,24.37,11.66,2.42-8.92,5.13-20.61,2.37-29.69-3.37-11.05-14.47-3.79,3.47-22.14-17.01-.98-27.39-11.1-40.83-18.53-2.82-1.56-7.99-1.42-8.29-1.72-.62-.63,2.56-16.5,2.97-17.28.55-1.02,15.26,1.41,23.15-1.33,5.45-1.89,27.06-20.1,28.75-18.8,1.91,9.56,5.03,19.61,13.04,25.88l82.38-126.7c4.91-.76,3.11,6.91,2.82,10.01-1.99,21.62-13.85,36.52-25.97,53.32l20.21-2.83c-3.84,24.07,11.23,53.6,31.82,24.49,12.18-17.23,8.3-26.2,2.9-44.68,8.98,7.5,12.21,20.87,23.3,27.16,5.38,3.05,34.37,10.39,37.35,7.43v-14.41c18.21,6.96,24.75-10.26,26.03-25.92l11.4,15.95c3.16,2.58,12.41,7.74,15.82,6.82,3.26-.88,3.45-6.29,5.08-7.59.75-.59,5.27,1.24,9.02-1,8.99-5.37,14.63-15,13.56-25.72,11.78,3.8,19.36,8.19,32.59,5.13,10.89-2.52,16.15-16.49,25.15-22.4,3.64,45.14,35.55,25.16,60.87,32.96,3.8,1.17,20.38,15.96,21.69,18.88,1.06,2.36-17.98,26.97-.26,43.29,9.6,8.85,22.92,2.5,3.01,22.4-12.17-.89-34.53-42.47-40.49-42.58-7.38-.14-9.48,48.95,15.12,54.14,10.06,2.12,20.38-1.74,29.63-5.22.46,6.01-.88,12.69.2,18.56,3.28,17.83,55.89,47.67,38.77,4.55-10.59-26.67-37.94-17.57-30.24-43.28,6.3,4.53,8.01,10.51,15.72,14.54,6.32,3.31,18.16,4,21.09,6.35,5.34,4.28,14.14,37.01,25.32,36.91,9.32-.08,39.97-55.58,43.28-66.46,7.4-24.39,2.2-39.33-13.05-58.98-11.93-15.37-28.51-18.14-17.49-43.51,1.58-3.62,19.73-25.39,23.32-21.37-5.09,53.85,45.16,99.63,98.23,83.54l-3.26,12.57-19.81,20.53c3.31,7.36,24.7,9.18,25.71,10.38.98,1.16-.1,14.29,1.59,20.05,6.73,22.97,45.38,42.59,68.76,36.59,8.53-2.2,13.68-13.15,15.79-13.7,10.66-2.79,20.83-.3,13.79,11.52-1.71,2.87-11.69,7.24-15.86,12.98-13.22,18.21,4.6,48.89,2.9,70.62,5.47,5.52,23.28-17.9,25.46-22.16,4.93-9.68,7.45-18.69,6.34-29.71,4.99,1.34,2.59,10.66,5.05,16.53,7.96,19.04,37.34,10.48,28.31-16.7-1.54-4.65-7.32-7.91-7.46-12.76-.08-2.81,10.17-2.16,8.73-8.65-.9-4.04-19.61-6.82-25.14-9.54-6.91-3.4-11.63-11.29-20.62-12.53-4.7-22.54,10.49-14.39,24.79-19.07,8.61-2.82,17.66-12.75,25.32-17.91l14.44,25.82c27.4-24.93,41.02-60.06,59.71-90.23,6.94-11.21,21.24-20.31,22.68-36.47,6,2.26,2.65,18.4,1.57,23.2-3.59,15.99-15.91,25.95-21.82,40.15l20.21-2.84c-8.78,12.64,4.09,45.49,20.3,33.27,10.27-7.74,17.54-18.64,17.51-31.88-.02-6.73-8.38-19.31-1.68-21.57,1.01-.34,6.8,15.05,10.07,18.75,10.96,12.41,33.18,17.06,49.16,15.83l.02-17.31c16.97,13.73,26.3-13.83,23.11-28.79l10,20.24c3.3,2.29,17.61,10.87,20.41,5.78,2.26-4.12,5.46-44.6,7.14-46.23,7.92-7.68,18.6,14.72,26.73,18.01,23.17,9.38,36.59-6.15,51.24-20.87-6.64,43.91,50.43,23.27,59.41,40.38,3.93,7.48-20.78,50.97,15.74,51.86-7.87,15.33-6.44,22.5-21.76,8.69-9.29-8.38-21.31-24.07-27.41-34.64-7.1-3.07-5.12,5.74-7.16,5.82-11.05.44-21.65-37.35-27.5-46.15-6,1.02-3.57,12.08-10.57,14.11-8.31,2.42-16.8-7.62-29.91,4.53-5.34,4.95-28.8,53.56-25.92,56.23,18.74,2.13,35.29-5.19,49.07-17.27-5.92,48.35,38.5,30.97,28.93-2.86,20.66-3.53,12.04,5.64,17.94,20.99,13.2,34.3,46.55,11.47,48.5,13.57-8.42,27.82,15.51,43.38,40.45,46.08,2.42-19.79-1.67-27.92-15.88-40.32-9.81-8.57-24.46-6.65-15.86-25.93,6.19,2.98,6.92,10.33,13.29,14.08,6.55,3.85,15,2.73,21.22,7.65,6.53,5.18,20.48,38.62,24.69,38.72,27.41-26.48,60.96-75.61,42.47-114.33-17.78-37.21-55.54-27-12.95-74.98,1.23-1.39,1.89-7.9,6.56-3.67,3.27,2.96,2.3,21.08,3.61,26.68,10.34,44.17,54.22,66.14,97.56,59.77-3.3,15.41-15.31,20.68-25.95,30.23-.03,4.96,23.98,6.95,27.44,12.91,2.39,4.12,1.29,12.92,3.6,19.46,7.9,22.44,44,41.31,67.3,34.04,4.57-1.42,26.68-24.87,31.61-8.76,3.4,11.15-20.36,12.24-22.95,28.99-.93,6.03,6.27,59.6,8.54,61.75,5.06,4.79,21.27-16.64,23.68-21.04,5.85-10.68,6.01-18.76,5.22-30.83,9.35,5.16,2.81,19.24,14.48,24.41,20.32,9,22.26-6.56,20.01-22.83-1.59-11.54-10.97-11.86,3.03-24.6-12.2-1.81-38.57-12.8-46.34-21.75-2.16-2.47-.5-14.81.26-15.59.81-.83,16.91.34,23.11-1.47,5.51-1.61,26.8-20.3,28.71-18.85l13.05,25.88c4.06.06,35.4-47.42,40.23-54.91,10.59-16.46,19.5-32.02,30.13-47.75,4.56-6.75,9.89-16.13,12.03-24.04,4.91-.75,3.1,6.9,2.82,10.01-1.96,21.6-13.89,36.55-25.98,53.33l20.22-2.86c-2.21,9.97,1.45,34.74,13.43,37.01,10.74,2.03,26.82-22.56,27.24-32.75.44-10.53-10.12-17.52-1.64-24.41,5.55,20.09,23.06,32.55,43.71,34.32,15.45,1.32,16.54-1.94,15.54-17.03,5.32-1.11.11,8.14,7.08,5.66,11.53-4.12,17.55-19.99,16.03-31.59,5.67,3.93,3.39,10.97,10.03,17.33,2.22,2.12,11.21,6.99,17,8.57,1.06,53.42,1.89,105.12,2.52,155.16-9.04,72.52-94.76,33.77-110.04,77.17-17.53,49.81,32.6,27.98,49.08,64.43-47.53-.73-56.97-11.31-51.05,41.26-49.36-8.66-99.39-4.87-147.76,10.24l25.38,20.5c3.35,7.92,23.26,7.96,20.38,15.37-12.92,33.18-54.91,15,0,82.05-14.87,20.7-41.86,17.86-61.18,25.82-6.86,2.83-19.42-.99-25.77,9.59-29.71,49.5,15.13,53.57,46.17,72.57,9.7,5.94,38.01,20.41,39.24,22.31,14.08,21.8-20.04,30.37,21.97,39.32,7.08,45.69-9.54,52.13,40.8,71.89,19.08,7.48,60.15,10.36,66.92,19.96,4.68,6.65-8.16,56.38-5.36,66.18,3.51,12.3,24.77-.71,19.97,16.43-9-1.07-14,5.92-20.32,10.4-28.63,20.33-20.84,29.54-36.21,40.46-21.78,15.46-57.5,2.15-75.8,26.29,7.85,11.59,19.84,17.56,30.4,25.68,13.13,10.09,20.85,21.09,40.81,20.54-4.44,35.82,50.9,66.6,40.8,92.44-59.68-15.79-149.95-32.09-160.94,48.38-.42,3.09,14.61,58.2,17.24,59.86,29.83,18.82,122.93-21.25,123.3,45.81,0,1.01-9.78,3.82-10.11,9.29,26.16,10.68,42.86,23.44,71.32,31.79.18.08.37.16.56.24,2.81,1.51,7.16,8.13,15.3,9.46,2.14.35,4.36.63,6.62.85-.74,8.8-1.48,17.45-2.23,25.92-1.79,20.36-4.39,48.67-7.24,84.2-.95.82-1.89,1.66-2.81,2.57-72.84,16.58-192.39,71.96-30.61,72l-40.78,40.85c31.09-3.18,42.97,20.77,64.49,29.08-9.37,174.13-14.44,423.57,7.31,717.73,8.72,117.92,19.61,214.09,27.25,275.62-.95-.26-1.92-.53-2.88-.79.22,1.28.36,2.56.44,3.85,1.69,1.64,3.2,3.35,4.48,4.99,4.36,5.64,6.29,11.32,7.41,17.74l-.23-1.69c1.86,13.67,5.44,26.92,10.42,39.74,8.33,18.25,19.2,35.14,31.22,51.18,2.93,3.71,5.92,7.37,8.94,11.01,22.15.32,44.53.64,67.21.97-7.04-100.53-16.33-252.74-22.07-438.02-8.13-262.37-5.99-489.27-.08-681.44,17.4-.46,34.55-.41,51.06.92,6.84-15.92-9.35-26.33-10.15-30.76-1.11-6.26.55-13.85-.01-20.42l40.82-10.4c6.66,9.58,5.7,12.32,20.4,10.28,15.47-2.15,56.81-18.97,71.41-20.55,3.36-.36,6.87.45,10.2,0,2.52-.1,4.98-.21,7.39-.34,32.11-.07,126.13,9.48,100.06-30.77ZM2686.8,306.54c.88,7.69,15.58,42.83,3.94,44.98-1.6-.46-3-.95-4.26-1.48-1.36-40-2.9-80.65-4.63-121.94,27,11.96,5.97,36.62,4.54,58.47-.42,6.32-.32,13.68.41,19.97ZM2682.15,135.53c1.29.01,20.53,13.69,21.19,14.8,1.7,2.86-2.78,19.92-2.6,26.88.42,16.88,9.69,35.08,5.95,53.29-7.48,1.82-21.88-5.01-24.74-11.53-1-2.26,4.19-7.34,4.7-12.8,1.09-11.52-.33-25.11-7.23-33.67-.5-11.01-1.01-22.05-1.54-33.15,2.12-2.32,3.76-3.82,4.27-3.82ZM189.89,240.31c-1.02,34.79-24.52-1.29-17.18-21.34-3.46,0-4.68,6.32-8.64,4.54-2.65-1.2-19.38-17.2-19.72-20.96-2.25-25.13,22.32,6.3,26.93,10.69,8.73,8.32,19.22,6.16,18.61,27.07ZM348.99,677.11c-.88,1.12-1.66,2.26-2.33,3.41-.03-.87-.05-1.74-.08-2.6,1-.22,1.82-.49,2.41-.81ZM904.61,486.35c-7.76,3.63-16.56,14.92-26.12,5.57-1.65-1.62-4.63-9.33-3.64-10.73,8.81-1.59,17.06-4.06,25.09-8.14,23.97-12.18,38.95-43.53,70.23-24.98l-29.31,11.03c-15.39,15.15-17.22,18.34-36.25,27.25ZM976.28,485.78c-8.67,9.13-10.17,30.94-24.87,38.58l-15.88-34.53c13.81,1.47,29.35-5.14,35.38-18.06,3-6.44-.26-18.38,8.05-11.86,22.34,17.54,5.38,17.4-2.68,25.87ZM1076.4,506.55c-5.58-.76-35.66-14.69-39.6-18.33-6.68-6.15-17.92-32.13-2.13-29.71,17.49,2.68,34.09,42.29,53.97,22.65-.83,12.53,5.53,27.78-12.24,25.39ZM1152.2,518.61c-16.97-24.2-61.7-1.28-57.73-34.57,9.22,10.08,29.29,10.37,40.47,4.37,11.27-6.05-20.64-11.82-13.01-18.81,13.79,5.8,25.48,16.87,41.86,14.41-2.12-6.78-14.54-22.37-10.79-28.2.62-.96,7.28.43,4.99-4.87-1.56-3.63-13.13-7.13-15.82-13.05-3.09-6.84-.65-16.7-5.05-23.78l-16.66-19.37c7.62-.29,10.16,7.93,17.17,10.22,5.64,1.85,11.91.35,17.44,2.78,1.23.54,20.83,14.77,21.67,15.82,10.7,13.35-1.19,15.16-5.04,23.78-5.56,12.45,5.9,29.83,9.42,42.44-19.52-8.53-27.97,11.87-28.92,28.83ZM1714.48,475.66c-3.77,3.83-5.97,12.16-9.5,14.31-4.14,2.52-11.87,2.73-17.35,5.03-13.53,5.68-18.82,18.17-29.76-5.16,11.71-1.97,22.49-6.1,32.7-12.08,21.36-12.51,30.09-40.81,56.85-18.2-11.62,3.77-24.02,7.05-32.94,16.1ZM1871.53,515.59c-21.17-.98-37.94-14.66-58.44-20.96-5.73-1.75-16.35,2.72-13.22-8.68.59-2.14,11.99-13.92,14.07-14.81,25.19-10.73,23.22,13.56,36.4,21.22,14.56,8.45,30.67-11.5,21.19,23.23ZM1916.14,513.03c-12.66,3.42-46.17.35-38.65-20.35,11.64,7.2,27.85,11.81,40.47,4.38,8.12-4.78-11.74-11.3-11.61-15.87l23.12,2.82c-7.61-11.26-6.23-13.39,7.13-17.33l10.17,26c-21-19.33-28.38,19.74-30.63,20.35ZM2552.22,438.04c.85-.75,1.6-1.74,2.29-2.88.17,6.8.34,13.59.51,20.34-11.66,5.12-23.36,9.63-24.55,8.36-4.98-25.81,10.78-16.02,21.75-25.82ZM2468.48,489.95c-7.16,4.7-21.89,6.29-29.7,13.9-5.54,2.62-17.97-10.34-15.22-14.02,18.17-2.39,33.33-12.51,47.6-23.14,4.52-3.37,12.71-14.54,15.8-15.66,1.78-.64,31.09-1.31,31.91,5.68l-27.5,9.97c-11.12,3.15-15.75,18.57-22.89,23.27ZM2552.32,504.01c-6.75-4.1-11.85-1.38-17.17-3.1-4.91-1.59-3.95-9.02-6.13-8.21-12.01,4.43-12.76,36.24-30.32,37.43-1.39-12.03-8.95-21.42-14.48-31.66,24.25,1.26,34.55-10.47,41.91-31.71,2.07-.93,11.41,24.02,29.65,20.67.17,6.97.33,13.91.48,20.83-1.1-1.85-2.4-3.31-3.94-4.25Z"/>
</svg>