<?xml version="1.0" encoding="UTF-8"?>
<svg id="Layer_1" data-name="Layer 1" xmlns="http://www.w3.org/2000/svg" viewBox="0 0 189.28 287.35">
  <defs>
    <style>
      .cls-1 {
        fill: #c6a351;
      }
    </style>
  </defs>
  <g>
    <path class="cls-1" d="M131.91,34.15h-28.9l-1.96,1.96,1.96,1.97h11.05v-.34h-10.57l1.46-1.46h18.77v-.34h-18.77l-1.46-1.46h28.43v-.34ZM104.64,36.12l-1.56,1.56-1.56-1.56,1.56-1.56,1.56,1.56Z"/>
    <polygon class="cls-1" points="100.26 45.68 105.74 45.68 105.74 45.35 100.6 45.35 102.06 43.89 108.53 43.89 108.53 43.55 101.92 43.55 99.24 46.24 99.47 46.48 100.26 45.68"/>
    <path class="cls-1" d="M86.27,249.27h-11.05v.34h10.57l-1.46,1.46h-18.77v.34h18.77l1.46,1.46h-28.43v.34h28.9l1.96-1.96-1.96-1.97ZM86.2,252.79l-1.56-1.56,1.56-1.56,1.56,1.56-1.56,1.56Z"/>
    <polygon class="cls-1" points="89.02 241.66 83.54 241.66 83.54 242 88.68 242 87.22 243.46 80.75 243.46 80.75 243.79 87.36 243.79 90.04 241.11 89.8 240.87 89.02 241.66"/>
    <path class="cls-1" d="M154.74,142.14l-1.53,1.53,1.53,1.53,1.53-1.53-1.53-1.53ZM153.68,143.67l1.06-1.06,1.06,1.06-1.06,1.06-1.06-1.06Z"/>
    <path class="cls-1" d="M153.6,142.41l-1.5-1.5-2.76,2.77,2.76,2.77,1.5-1.5-1.26-1.26,1.26-1.26ZM153.12,144.94l-1.03,1.03-2.29-2.29,2.29-2.29,1.03,1.03-1.26,1.26,1.26,1.26Z"/>
    <polygon class="cls-1" points="161.34 242.05 161.58 242.29 163.43 240.44 163.43 224.58 163.09 224.58 163.09 239.96 161.63 238.51 161.63 231.61 161.29 231.61 161.29 238.64 163.02 240.37 161.34 242.05"/>
    <polygon class="cls-1" points="27.9 242.05 27.66 242.29 25.81 240.44 25.81 224.58 26.15 224.58 26.15 239.96 27.61 238.51 27.61 231.61 27.95 231.61 27.95 238.64 26.22 240.37 27.9 242.05"/>
    <polygon class="cls-1" points="161.34 45.3 161.58 45.06 163.43 46.91 163.43 62.77 163.09 62.77 163.09 47.38 161.63 48.84 161.63 55.74 161.29 55.74 161.29 48.7 163.02 46.98 161.34 45.3"/>
    <polygon class="cls-1" points="27.9 45.3 27.66 45.06 25.81 46.91 25.81 62.77 26.15 62.77 26.15 47.38 27.61 48.84 27.61 55.74 27.95 55.74 27.95 48.7 26.22 46.98 27.9 45.3"/>
    <path class="cls-1" d="M103.48,252.86l1.46-1.46h18.77v-.34h-18.77l-1.46-1.46h10.57v-.34h-11.05l-1.96,1.97,1.96,1.96h28.9v-.34h-28.43ZM101.52,251.23l1.56-1.56,1.56,1.56-1.56,1.56-1.56-1.56Z"/>
    <polygon class="cls-1" points="108.53 243.46 102.06 243.46 100.6 242 105.74 242 105.74 241.66 100.26 241.66 99.47 240.87 99.24 241.11 101.92 243.79 108.53 243.79 108.53 243.46"/>
    <path class="cls-1" d="M37.18,140.91l-1.5,1.5,1.26,1.26-1.26,1.26,1.5,1.5,2.76-2.77-2.76-2.77ZM36.15,144.94l1.26-1.26-1.26-1.26,1.03-1.03,2.29,2.29-2.29,2.29-1.03-1.03Z"/>
    <path class="cls-1" d="M34.54,142.14l-1.53,1.53,1.53,1.53,1.53-1.53-1.53-1.53ZM33.48,143.67l1.06-1.06,1.06,1.06-1.06,1.06-1.06-1.06Z"/>
    <path class="cls-1" d="M86.27,34.15h-28.9v.34h28.43l-1.46,1.46h-18.77v.34h18.77l1.46,1.46h-10.57v.34h11.05l1.96-1.97-1.96-1.96ZM86.2,37.68l-1.56-1.56,1.56-1.56,1.56,1.56-1.56,1.56Z"/>
    <polygon class="cls-1" points="80.75 43.55 80.75 43.89 87.22 43.89 88.68 45.35 83.54 45.35 83.54 45.68 89.02 45.68 89.8 46.48 90.04 46.24 87.36 43.55 80.75 43.55"/>
    <path class="cls-1" d="M168.23,8.5H21.05l-12.54,12.54v245.26l12.72,12.54h147.18l12.37-12.54V21.05l-12.54-12.54ZM176.68,20.42l1.86,1.86v3.47l-1.86-1.75v-3.58ZM176.68,24.47l1.86,1.75v36.17l-1.86-1.86V24.47ZM176.68,67.76l1.86,1.86v68.14l-1.86,1.75v-71.75ZM178.01,142.84v.41c-2.03,0-3.36-.05-4.14-.4.37-.54,1.04-1.23,1.98-2.17l2.16,2.16ZM178.54,149.59v68.14l-1.86,1.86v-71.75l1.86,1.75ZM167.86,252.18v3.48h-7.16v-4.93h4.9l4.73-4.74v-4.78h1.62v6.88l-4.08,4.08ZM171.95,249.46v6.21h-3.12v-3.09l3.12-3.12ZM150.64,270.44l3.44-3.44h3.09v3.44h-6.53ZM157.17,271.4v2.5h-6.9v-2.5h6.9ZM153.69,266.04l-4.4,4.4h-9.25l-4.4-4.4h-21.29l-14.82-14.82,4.19-4.19-9.06-9.06-.02.02-.02-.02-9.06,9.06,4.19,4.19-14.82,14.82h-21.29l-4.4,4.4h-9.25l-4.4-4.4h-3.48v-7.52l-2.57-2.57v-5.22h5.04l-9.88-9.89v-15.04l-5.61-6.25v-18.19l.66-.66.9.9,2.03-2.03-2.03-2.04-.9.9-1.96-1.96,1.55-1.55,2.33,2.33,2.57-2.57-2.57-2.57-2.33,2.33-1.55-1.55,1.96-1.96.9.9,2.03-2.03-2.03-2.04-.9.9-1.96-1.96,1.55-1.55,2.33,2.33,2.57-2.57-2.57-2.57-2.33,2.33-1.55-1.55,1.96-1.96.9.9,2.03-2.03-2.03-2.04-.9.9-.66-.66v-17.55l1.22,1.22,1.54-1.54-1.36-1.36.58-.58.97.97,2.16-2.16-2.16-2.16-1.17,1.17-1.75-1.75.55-.55.77.77.24-.24-.77-.77,2.13-2.13-1.27-1.27,1.43-1.43,3.46,3.46,2.42-2.43,1.78,1.78,3.67-3.67-2.94-2.94,1.42-1.42-1.42-1.42,2.94-2.94-3.67-3.67-1.78,1.78-2.42-2.43-3.46,3.46-1.43-1.43,1.27-1.27-2.13-2.13.77-.77-.24-.24-.77.77-.55-.55,1.75-1.75,1.17,1.17,2.16-2.16-2.16-2.16-.97.97-.58-.58,1.36-1.36-1.54-1.54-1.22,1.22v-17.55l.66-.66.9.9,2.03-2.04-2.03-2.03-.9.9-1.96-1.96,1.55-1.55,2.33,2.33,2.57-2.57-2.57-2.57-2.33,2.33-1.55-1.55,1.96-1.96.9.9,2.03-2.04-2.03-2.03-.9.9-1.96-1.96,1.55-1.55,2.33,2.33,2.57-2.57-2.57-2.57-2.33,2.33-1.55-1.55,1.96-1.96.9.9,2.03-2.04-2.03-2.03-.9.9-.66-.66v-18.83l5.61-5.61v-15.04l9.88-9.89h-5.04v-5.22l2.57-2.57v-7.52h3.48l4.4-4.4h9.25l4.4,4.4h21.29l14.82,14.82-4.19,4.19,9.06,9.06.02-.02.02.02,9.06-9.06-4.19-4.19,14.82-14.82h21.29l4.4-4.4h9.25l4.4,4.4h3.48v7.52l2.57,2.57v5.22h-5.04l9.88,9.89v15.04l5.61,5.61v18.8l-.7.7-.9-.9-2.03,2.03,2.03,2.04.9-.9,1.96,1.96-1.55,1.55-2.33-2.33-2.57,2.57,2.57,2.57,2.33-2.33,1.55,1.55-1.96,1.96-.9-.9-2.03,2.03,2.03,2.04.9-.9,1.96,1.96-1.55,1.55-2.33-2.33-2.57,2.57,2.57,2.57,2.33-2.33,1.55,1.55-1.96,1.96-.9-.9-2.03,2.03,2.03,2.04.9-.9.7.7v17.52l-1.22-1.22-1.54,1.54,1.36,1.36-.58.58-.97-.97-2.16,2.16,2.16,2.16,1.17-1.17,1.75,1.75-.55.55-.77-.77-.24.24.77.77-2.13,2.13,1.27,1.27-1.43,1.43-3.46-3.46-2.42,2.43-1.78-1.78-3.67,3.67,2.94,2.94-1.42,1.42,1.42,1.42-2.94,2.94,3.67,3.67,1.78-1.78,2.42,2.43,3.46-3.46,1.43,1.43-1.27,1.27,2.13,2.13-.77.77.24.24.77-.77.55.55-1.75,1.75-1.17-1.17-2.16,2.16,2.16,2.16.97-.97.58.58-1.36,1.36,1.54,1.54,1.22-1.22v17.52l-.7.7-.9-.9-2.03,2.04,2.03,2.03.9-.9,1.96,1.96-1.55,1.55-2.33-2.33-2.57,2.57,2.57,2.57,2.33-2.33,1.55,1.55-1.96,1.96-.9-.9-2.03,2.04,2.03,2.03.9-.9,1.96,1.96-1.55,1.55-2.33-2.33-2.57,2.57,2.57,2.57,2.33-2.33,1.55,1.55-1.96,1.96-.9-.9-2.03,2.04,2.03,2.03.9-.9.7.7v18.79s-5.61,5.62-5.61,5.62v15.04l-9.88,9.89h5.04v5.22l-2.57,2.57v7.52h-3.48ZM57.7,271.4l2.5,2.5h-20.24v-2.5h17.74ZM50.6,270.44l3.44-3.44h20.88l3.44,3.44h-27.76ZM58.38,271.4h5.52l2.5,2.5h-5.52l-2.5-2.5ZM64.58,271.4h14.71s2.52,2.5,2.52,2.5h-14.73l-2.5-2.5ZM75.8,266.53l14.63-14.63,2.06,2.06h4.31l2.06-2.06,14.63,14.63-7.37,7.37h-22.94l-7.37-7.37ZM86.91,247.03l7.71-7.71.02.02.02-.02,7.71,7.71-5.97,5.97h-3.51l-5.97-5.97ZM114.36,267h20.88l3.44,3.44h-27.76l3.44-3.44ZM109.98,271.39h0s14.71.01,14.71.01l-2.5,2.5h-14.73l2.52-2.51ZM125.37,271.4h5.52l-2.5,2.5h-5.52l2.5-2.5ZM131.57,271.4h17.74v2.5h-20.24l2.5-2.5ZM39,271.4v2.5h-6.9v-2.5h6.9ZM32.1,270.44v-3.44h3.09l3.44,3.44h-6.53ZM17.33,248.1v-6.88h1.62v4.78l4.73,4.74h4.9v4.93h-7.16v-3.48l-4.08-4.08ZM13.56,247.81v-20.03l2.81,2.81v17.22h-2.81ZM16.37,248.77v6.9h-2.81v-6.9h2.81ZM13.56,227.1v-5.88l2.81,2.81v5.88l-2.81-2.81ZM13.56,220.54v-72.02l2.81,2.81v72.02l-2.81-2.81ZM14.02,147.26c.94-.94,1.63-1.62,2.17-1.98.37.83.4,2.28.4,4.55l-2.57-2.57ZM21.41,35.17v-3.48h7.16v4.93h-4.9l-4.73,4.74v4.78h-1.62v-6.88l4.08-4.08ZM17.33,37.89v-6.21h3.12v3.09l-3.12,3.12ZM32.26,37.58l-12.36,12.36v-8.18l4.17-4.17h8.18ZM18.94,47.09v5.16l4.79-4.79v13.69l-6.4,6.4v-20.46h1.62ZM18.74,67.5v18.14l-1.41-1.42v-15.31l1.41-1.41ZM17.37,84.74l2.14,2.15-.9.9.9.9-2.18,2.18v-6.08l.04-.04ZM20.41,87.79l-.66.66-.66-.66.66-.66.66.66ZM19.99,86.89l.66-.66,1.56,1.56-1.56,1.56-.66-.66.9-.9-.9-.9ZM20.41,97.55l-.66.66-.66-.66.66-.66.66.66ZM19.99,96.65l.66-.66,1.56,1.56-1.56,1.56-.66-.66.9-.9-.9-.9ZM18.61,97.55l.9.9-2.18,2.18v-6.16l2.18,2.18-.9.9ZM20.41,107.31l-.66.66-.66-.66.66-.66.66.66ZM19.99,106.41l.66-.66,1.56,1.56-1.56,1.56-.66-.66.9-.9-.9-.9ZM18.61,107.31l.9.9-2.18,2.18v-6.16l2.18,2.18-.9.9ZM18.7,109.49l.03,17.11-1.41-1.41v-14.32l1.38-1.38ZM18.74,127.01h0s.92.92.92.92l.41.41-.99.99.78.79-2.54,2.54v-7.06l1.41,1.41ZM21.64,129.91l-.78.78-.58-.58.78-.78.58.58ZM21.27,129.13l.76-.76,1.75,1.75-1.74,1.75-.96-.96.99-.99-.78-.78ZM20.08,129.91l-.58-.58.78-.78.58.58-.78.78ZM19.51,127.36l-.36-.36,1.15-1.15,1.13,1.13-1.15,1.15-.77-.77ZM20.08,130.32l.58.58-1.95,1.95.75.75-1.3,1.3,2.16,2.16-.8.8-2.18-2.18v-2.61l2.75-2.75ZM21.64,157.44l-.58.58-.78-.78.58-.58.78.78ZM21.07,156.45l.96-.96,1.74,1.75-1.75,1.75-.76-.76.78-.78-.99-.99ZM20.41,180.04l-.66.66-.66-.66.66-.66.66.66ZM19.99,179.14l.66-.66,1.56,1.56-1.56,1.56-.66-.66.9-.9-.9-.9ZM18.61,180.04l.9.9-2.18,2.18v-6.16l2.18,2.18-.9.9ZM20.41,189.8l-.66.66-.66-.66.66-.66.66.66ZM19.99,188.9l.66-.66,1.56,1.56-1.56,1.56-.66-.66.9-.9-.9-.9ZM18.61,189.8l.9.9-2.18,2.18v-6.16l2.18,2.18-.9.9ZM20.41,199.56l-.66.66-.66-.66.66-.66.66.66ZM19.99,198.66l.66-.66,1.56,1.56-1.56,1.56-.66-.66.9-.9-.9-.9ZM18.61,199.56l.9.9-2.14,2.15-.04-.04v-6.08l2.18,2.18-.9.9ZM18.74,219.17l-1.41-1.57v-14.48l1.41-1.41v17.46ZM23.73,226.2v13.69l-4.79-4.79v5.16h-1.62v-20.46l6.4,6.4ZM17.33,176.48v-14.32l1.41-1.41-.03,17.11-1.38-1.38ZM18.74,160.34l-1.41,1.41v-7.06l2.54,2.54-.78.79.99.99-1,1-.34.34ZM20.28,159.21l1.15,1.15-1.13,1.13-1.15-1.15,1.13-1.13ZM19.5,158.02l.58-.58.78.78-.58.58-.78-.78ZM20.08,157.03l-2.75-2.75v-2.61l2.18-2.18.8.8-2.16,2.16,1.3,1.3-.75.75,1.95,1.95-.58.58ZM15.98,143c.14-.1.26-.22.36-.36.23.11.45.17.67.17s.44-.06.67-.17c.1.14.22.26.36.36-.11.23-.17.45-.17.67s.06.44.17.67c-.14.1-.26.22-.36.36-.23-.11-.45-.17-.67-.17s-.44.06-.67.17c-.1-.14-.22-.26-.36-.36.11-.23.17-.45.17-.67s-.06-.44-.17-.67ZM28.81,143.67l-4.16,4.16-4.16-4.16,4.16-4.16,4.16,4.16ZM26.96,141.15l.52-.53.93.93-.53.53-.93-.93ZM27.89,145.27l.53.53-.93.93-.52-.53.93-.93ZM19.9,143.77c-.62.06-1.11.18-1.49.36-.07-.16-.11-.31-.11-.45s.04-.29.11-.45c.38.18.87.29,1.49.36l-.1.1.1.1ZM18.26,142.63s-.07-.06-.11-.09c-.03-.03-.07-.07-.1-.11.48-.32,1.03-.83,1.75-1.55-.71.73-1.23,1.28-1.55,1.75ZM18.15,144.81s.07-.06.11-.09c.32.48.84,1.02,1.55,1.75-.72-.72-1.28-1.23-1.75-1.55.03-.04.06-.08.1-.11ZM18.62,144.5c.4-.18.95-.28,1.67-.33l1.41,1.41-1.09,1.09c-.94-.94-1.62-1.63-1.98-2.17ZM20.29,143.18c-.72-.06-1.27-.15-1.67-.33.37-.54,1.04-1.23,1.98-2.17l1.09,1.09-1.41,1.41ZM17.84,142.06c-.37-.83-.4-2.28-.4-4.55l2.57,2.57c-.94.94-1.63,1.62-2.17,1.98ZM17.84,145.28c.54.36,1.23,1.04,2.17,1.98l-2.57,2.57c0-2.27.03-3.72.4-4.55ZM18.63,152.44l1.92-1.92,1.06,1.06-1.92,1.92-1.06-1.06ZM20.52,150.08l-.8-.8,2.84-2.84,2.08,2.08,2.08-2.08.52.53-1.07,1.07,1.65,1.65-2.19,2.19-3.46-3.46-1.67,1.67ZM26.66,148.03l.83-.83,1.42,1.42-.83.83-1.42-1.42ZM29.37,148.62l-1.65-1.65.93-.93.5.5,1.2-1.2,2.7,2.7-3.19,3.19-1.54-1.54,1.07-1.07ZM28.89,145.8l.96-.96.26.26-.96.96-.26-.26ZM29.85,144.36l-1.2,1.2-.53-.53,1.36-1.36-1.36-1.36.53-.53,1.2,1.2.5-.5,1.18,1.18-1.18,1.18-.5-.5ZM28.89,141.55l.26-.26.96.96-.26.26-.96-.96ZM29.15,140.82l-.5.5-.93-.93,1.65-1.65-1.07-1.07,1.54-1.54,3.19,3.19-2.7,2.7-1.2-1.2ZM28.9,138.73l-1.42,1.42-.83-.83,1.42-1.42.83.83ZM26.18,139.32l1.07,1.07-.52.53-2.08-2.08-2.08,2.08-2.84-2.84.8-.8,1.67,1.67,3.46-3.46,2.19,2.19-1.65,1.65ZM18.63,134.9l1.06-1.06,1.92,1.92-1.06,1.06-1.92-1.92ZM17.46,142.28c-.16.07-.31.11-.45.11s-.29-.04-.45-.11c.44-.94.45-2.53.45-5.18,0,2.65,0,4.24.45,5.18ZM16.19,142.06c-.54-.36-1.23-1.04-2.17-1.98l2.57-2.57c0,2.27-.03,3.72-.4,4.55ZM15.97,142.43s-.06.08-.1.11c-.03.03-.07.06-.11.09-.32-.48-.84-1.03-1.55-1.75.72.72,1.28,1.23,1.75,1.55ZM15.73,143.67c0,.14-.04.29-.11.45-.84-.4-2.18-.45-4.32-.45,2.14,0,3.48-.06,4.32-.45.07.16.11.31.11.45ZM15.77,144.72s.07.06.11.09c.03.03.07.07.1.11-.48.32-1.03.83-1.75,1.55.71-.72,1.23-1.28,1.55-1.75ZM16.56,145.07c.16-.07.31-.11.45-.11s.29.04.45.11c-.44.94-.45,2.53-.45,5.18,0-2.65,0-4.24-.45-5.18ZM19.09,184.92l-1.76,1.76v-3.53l1.76,1.76ZM19.09,194.68l-1.76,1.76v-3.53l1.76,1.76ZM17.33,249.46l3.12,3.12v3.09h-3.12v-6.21ZM24.08,249.77l-4.17-4.17v-8.18l12.36,12.36h-8.18ZM19.57,194.68l2.09-2.09,2.1,2.09-2.1,2.09-2.09-2.09ZM19.57,184.92l2.09-2.09,2.1,2.09-2.1,2.09-2.09-2.09ZM17.33,104.19v-3.53l1.76,1.76-1.76,1.76ZM19.57,102.43l2.09-2.09,2.1,2.09-2.1,2.09-2.09-2.09ZM17.33,94.43v-3.53l1.76,1.76-1.76,1.76ZM19.57,92.67l2.09-2.09,2.1,2.09-2.1,2.09-2.09-2.09ZM38.63,16.91l-3.44,3.44h-3.09v-3.44h6.53ZM32.1,15.95v-2.5h6.9v2.5h-6.9ZM131.57,15.95l-2.5-2.5h20.24v2.5h-17.74ZM138.68,16.91l-3.44,3.44h-20.88l-3.44-3.44h27.76ZM130.89,15.95h-5.52l-2.5-2.5h5.52l2.5,2.5ZM124.69,15.95h-14.71s-2.51-2.5-2.51-2.5h14.73l2.5,2.5ZM113.48,20.82l-14.63,14.63-2.06-2.06h-4.31l-2.06,2.06-14.63-14.63,7.37-7.37h22.94l7.37,7.37ZM102.36,40.32l-7.71,7.71-.02-.02-.02.02-7.71-7.71,5.97-5.97h3.51l5.97,5.97ZM74.91,20.35h-20.88l-3.44-3.44h27.76l-3.44,3.44ZM79.3,15.96h0s-14.71-.01-14.71-.01l2.5-2.5h14.73l-2.52,2.51ZM63.91,15.95h-5.52l2.5-2.5h5.52l-2.5,2.5ZM57.7,15.95h-17.74v-2.5h20.24l-2.5,2.5ZM150.28,15.95v-2.5h6.9v2.5h-6.9ZM157.17,16.91v3.44h-3.09l-3.44-3.44h6.53ZM171.95,39.25v6.88h-1.62v-4.78l-4.73-4.74h-4.9v-4.93h7.16v3.48l4.08,4.08ZM175.72,39.54v20.03l-2.81-2.81v-17.22h2.81ZM172.91,38.58v-6.9h2.81v6.9h-2.81ZM175.72,60.25v5.88l-2.81-2.81v-5.88l2.81,2.81ZM175.72,66.8v72.02l-2.81-2.81V63.99l2.81,2.81ZM175.25,140.08c-.94.94-1.63,1.62-2.17,1.98-.37-.83-.4-2.28-.4-4.55l2.57,2.57ZM175.05,140.88c-.71.72-1.23,1.28-1.55,1.75-.04-.03-.07-.06-.11-.09-.03-.03-.07-.07-.1-.11.48-.32,1.03-.83,1.75-1.55ZM173.29,144.34c-.14.1-.26.22-.36.36-.23-.11-.45-.17-.67-.17s-.44.06-.67.17c-.1-.14-.22-.26-.36-.36.11-.23.17-.45.17-.67s-.06-.44-.17-.67c.14-.1.26-.22.36-.36.23.11.45.17.67.17s.44-.06.67-.17c.1.14.22.26.36.36-.11.23-.17.45-.17.67s.06.44.17.67ZM167.09,148.41l-3.46,3.46-2.19-2.19,1.65-1.65-1.07-1.07.52-.53,2.08,2.08,2.08-2.08,2.84,2.84-.8.8-1.67-1.67ZM170.64,152.44l-1.06,1.06-1.92-1.92,1.06-1.06,1.92,1.92ZM167.63,129.91l.58-.58.78.78-.58.58-.78-.78ZM168.2,130.9l-.96.96-1.74-1.75,1.75-1.75.76.76-.78.78.99.99ZM168.83,107.31l.66-.66.66.66-.66.66-.66-.66ZM169.26,108.21l-.66.66-1.56-1.56,1.56-1.56.66.66-.9.9.9.9ZM170.63,107.31l-.9-.9,2.2-2.2-1.78-1.78,1.78-1.78-2.2-2.2.9-.9-.9-.9,2.2-2.2-1.78-1.78,1.78-1.78-2.2-2.2.9-.9-.9-.9,2.16-2.16.04.03.02.02v25.64l-2.22-2.22.9-.9ZM168.83,97.55l.66-.66.66.66-.66.66-.66-.66ZM169.26,98.45l-.66.66-1.56-1.56,1.56-1.56.66.66-.9.9.9.9ZM168.83,87.79l.66-.66.66.66-.66.66-.66-.66ZM169.26,88.69l-.66.66-1.56-1.56,1.56-1.56.66.66-.9.9.9.9ZM165.54,61.15v-13.69l4.79,4.79v-5.16h1.62v20.46l-6.4-6.4ZM170.54,67.5l1.41,1.41v15.29l-1.41,1.41v-18.11ZM170.54,109.49l1.41,1.41v14.32l-1.41,1.41v-17.14ZM171.95,125.63v7.02l-2.54-2.54.78-.79-.97-.97,2.73-2.73ZM168.99,128.13l-1.15-1.15,1.13-1.13,1.15,1.15-1.13,1.13ZM169.77,129.33l-.58.58-.78-.78.58-.58.78.78ZM169.2,130.32l2.75,2.75v2.61l-2.18,2.18-.8-.8,2.16-2.16-1.3-1.3.75-.75-1.95-1.95.58-.58ZM160.47,143.67l4.16-4.16,4.16,4.16-4.16,4.16-4.16-4.16ZM162.32,146.2l-.52.53-.93-.93.53-.53.93.93ZM161.39,142.08l-.53-.53.93-.93.52.53-.93.93ZM169.38,143.58c.62-.06,1.11-.18,1.49-.36.07.16.11.31.11.45s-.04.29-.11.45c-.38-.18-.87-.29-1.49-.36l.1-.1-.1-.1ZM168.98,143.18l-1.41-1.41,1.09-1.09c.94.94,1.62,1.63,1.98,2.17-.4.18-.95.28-1.67.33ZM168.98,144.16c.72.06,1.27.15,1.67.33-.37.54-1.04,1.23-1.98,2.17l-1.09-1.09,1.41-1.41ZM171.02,144.72s.07.06.11.09c.03.03.07.07.1.11-.48.32-1.03.83-1.75,1.55.71-.73,1.23-1.28,1.55-1.75ZM171.12,142.54s-.07.06-.11.09c-.32-.48-.84-1.02-1.55-1.75.72.72,1.28,1.23,1.75,1.55-.03.04-.06.08-.1.11ZM169.27,140.08l2.57-2.57c0,2.27-.03,3.72-.4,4.55-.54-.36-1.23-1.04-2.17-1.98ZM170.64,134.9l-1.92,1.92-1.06-1.06,1.92-1.92,1.06,1.06ZM168.75,137.27l.8.8-2.84,2.84-2.08-2.08-2.08,2.08-.52-.53,1.07-1.07-1.65-1.65,2.19-2.19,3.46,3.46,1.67-1.67ZM162.62,139.32l-.83.83-1.42-1.42.83-.83,1.42,1.42ZM159.9,138.73l1.65,1.65-.93.93-.5-.5-1.2,1.2-2.7-2.7,3.19-3.19,1.54,1.54-1.07,1.07ZM160.39,141.55l-.96.96-.26-.26.96-.96.26.26ZM159.42,142.99l1.2-1.2.53.53-1.36,1.36,1.36,1.36-.53.53-1.2-1.2-.5.5-1.18-1.18,1.18-1.18.5.5ZM160.39,145.8l-.26.26-.96-.96.26-.26.96.96ZM160.13,146.53l.5-.5.93.93-1.65,1.65,1.07,1.07-1.54,1.54-3.19-3.19,2.7-2.7,1.2,1.2ZM160.38,148.62l1.42-1.42.83.83-1.42,1.42-.83-.83ZM169.27,147.26c.94-.94,1.63-1.62,2.17-1.98.37.83.4,2.28.4,4.55l-2.57-2.57ZM172.71,142.28c-.16.07-.31.11-.45.11s-.29-.04-.45-.11c.44-.94.45-2.53.45-5.18,0,2.65,0,4.24.45,5.18ZM171.95,37.89l-3.12-3.12v-3.09h3.12v6.21ZM165.2,37.58l4.17,4.17v8.18l-12.36-12.36h8.18ZM169.67,92.67l-2.09,2.09-2.1-2.09,2.1-2.09,2.09,2.09ZM169.67,102.43l-2.09,2.09-2.1-2.09,2.1-2.09,2.09,2.09ZM168.42,158.22l.78-.78.58.58-.78.78-.58-.58ZM170.12,160.34l-1.15,1.15-1.13-1.13,1.15-1.15,1.13,1.13ZM168.21,158.01l-.58-.58.78-.78.58.58-.78.78ZM168,158.22l-.76.76-1.75-1.75,1.74-1.75.96.96-.99.99.78.78ZM168.83,180.04l.66-.66.66.66-.66.66-.66-.66ZM169.26,180.94l-.66.66-1.56-1.56,1.56-1.56.66.66-.9.9.9.9ZM169.67,184.92l-2.09,2.09-2.1-2.09,2.1-2.09,2.09,2.09ZM168.83,189.8l.66-.66.66.66-.66.66-.66-.66ZM169.26,190.7l-.66.66-1.56-1.56,1.56-1.56.66.66-.9.9.9.9ZM169.67,194.68l-2.09,2.09-2.1-2.09,2.1-2.09,2.09,2.09ZM168.83,199.56l.66-.66.66.66-.66.66-.66-.66ZM169.26,200.46l-.66.66-1.56-1.56,1.56-1.56.66.66-.9.9.9.9ZM157.02,249.77l12.36-12.36v8.18l-4.17,4.17h-8.18ZM170.33,240.26v-5.16l-4.79,4.79v-13.69l6.4-6.4v20.46h-1.62ZM170.54,219.85v-18.11l1.41,1.4v15.3l-1.41,1.41ZM171.89,202.62l-2.16-2.16.9-.9-.9-.9,2.2-2.2-1.78-1.78,1.78-1.78-2.2-2.2.9-.9-.9-.9,2.2-2.2-1.78-1.78,1.78-1.78-2.2-2.2.9-.9-.9-.9,2.22-2.22v25.64l-.06.05ZM170.54,177.86v-17.14l1.41,1.41v14.32l-1.41,1.41ZM169.22,158.99l.97-.97-.78-.79,2.54-2.54v7.02l-2.73-2.72ZM169.2,157.03l-.58-.58,1.95-1.95-.75-.75,1.3-1.3-2.16-2.16.8-.8,2.18,2.18v2.61l-2.75,2.75ZM171.81,145.07c.16-.07.31-.11.45-.11s.29.04.45.11c-.44.94-.45,2.53-.45,5.18,0-2.65,0-4.24-.45-5.18ZM173.08,145.28c.54.36,1.23,1.04,2.17,1.98l-2.57,2.57c0-2.27.03-3.72.4-4.55ZM173.3,144.92s.06-.08.1-.11.07-.06.11-.09c.32.48.84,1.03,1.55,1.75-.72-.72-1.28-1.23-1.75-1.55ZM173.55,143.67c0-.14.04-.29.11-.45.84.4,2.18.45,4.32.45-2.14,0-3.48.06-4.32.45-.07-.16-.11-.31-.11-.45ZM175.72,20.36v10.36h-15.3l-2.29-2.29v-14.98h10.68l6.91,6.91ZM166.88,10.63l1.86,1.86h-3.58l-1.75-1.86h3.47ZM129.75,10.63h33.2l1.75,1.86h-36.59l1.63-1.86ZM125.58,10.63l1.86,1.86h-5.52l-1.86-1.86h5.52ZM119.37,10.63l1.86,1.86h-53.19l1.86-1.86h49.47ZM63.7,10.63h5.52l-1.86,1.86h-5.52l1.86-1.86ZM59.56,10.63l1.61,1.84-.02.02H24.57l1.75-1.86h33.24ZM22.39,10.63h3.47l-1.75,1.86h-3.58l1.86-1.86ZM13.56,20.36l6.91-6.91h10.68v14.98l-2.29,2.29h-15.3v-10.36ZM13.56,31.68h2.81v6.9h-2.81v-6.9ZM13.56,39.54h2.81v17.22l-2.81,2.81v-20.03ZM13.56,60.25l2.81-2.81v5.88l-2.81,2.81v-5.88ZM13.56,66.8l2.81-2.81-.03,14.36.03,57.66-2.81,2.81v-72.02ZM15.4,142.85c-.78.35-2.11.39-4.14.4v-.41l2.16-2.16c.94.94,1.62,1.63,1.98,2.17ZM10.73,22.29l1.86-1.86v3.58l-1.86,1.75v-3.47ZM10.73,26.22l1.86-1.75v36.06l-1.86,1.86V26.22ZM10.73,63.07l1.86-1.86v5.88l-1.86,1.86v-5.88ZM10.73,69.62l1.86-1.86v71.75l-1.86-1.75v-68.14ZM12.6,266.92l-1.86-1.86v-3.47l1.86,1.75v3.58ZM12.6,262.88l-1.86-1.75v-36.17l1.86,1.86v36.06ZM12.6,226.14l-1.86-1.86v-5.88l1.86,1.86v5.88ZM12.6,219.58l-1.86-1.86v-68.14l1.86-1.75v71.75ZM11.26,144.51v-.41c2.03,0,3.36.05,4.14.4-.37.54-1.04,1.23-1.98,2.17l-2.16-2.16ZM13.56,266.99v-10.36h15.3l2.29,2.29v14.98h-10.68l-6.91-6.91ZM22.39,276.72l-1.86-1.86h3.58l1.75,1.86h-3.47ZM59.56,276.72H26.32l-1.75-1.86h36.59l.02.02-1.62,1.84ZM63.7,276.72l-1.86-1.86h5.52l1.86,1.86h-5.52ZM69.9,276.72l-1.86-1.86h53.19l-1.86,1.86h-49.47ZM125.58,276.72h-5.52l1.86-1.86h5.52l-1.86,1.86ZM129.75,276.72l-1.63-1.86h36.59l-1.75,1.86h-33.2ZM166.88,276.72h-3.47l1.75-1.86h3.58l-1.86,1.86ZM175.72,266.99l-6.91,6.91h-10.68v-14.98l2.29-2.29h15.3v10.36ZM175.72,255.67h-2.81v-6.9h2.81v6.9ZM175.72,247.81h-2.81v-17.22l2.81-2.81v20.03ZM175.72,227.1l-2.81,2.81v-5.88l2.81-2.81v5.88ZM175.72,220.54l-2.81,2.81v-72.02l2.81-2.81v72.02ZM173.87,144.5c.78-.35,2.11-.39,4.14-.4v.41l-2.16,2.16c-.94-.94-1.62-1.63-1.98-2.17ZM178.54,265.06l-1.86,1.86v-3.58l1.86-1.75v3.47ZM178.54,261.13l-1.86,1.75v-36.06l1.86-1.86v36.17ZM178.54,224.28l-1.86,1.86v-5.88l1.86-1.86v5.88ZM178.54,68.95l-1.86-1.86v-5.88l1.86,1.86v5.88Z"/>
  </g>
  <path class="cls-1" d="M0,0v287.35h189.28V0H0ZM180.77,266.3l-12.37,12.54H21.22l-12.72-12.54V21.05l12.54-12.54h147.18l12.54,12.54v245.26Z"/>
</svg>